<?xml version="1.0" encoding="UTF-8" standalone="no"?>
<!DOCTYPE svg PUBLIC "-//W3C//DTD SVG 1.1//EN" "http://www.w3.org/Graphics/SVG/1.1/DTD/svg11.dtd">
<svg xmlns="http://www.w3.org/2000/svg">
<metadata>
This is a custom SVG webfont generated by Font Squirrel.
Copyright   : c
</metadata>
<defs>
<font id="CyrillicRegular" horiz-adv-x="930">
<font-face units-per-em="2048" ascent="1638" descent="-410"/>
<missing-glyph horiz-adv-x="500"/>
<glyph unicode=" "/>
<glyph unicode="!" horiz-adv-x="2048" d="M0 412v100h2048v-100h-2048z"/>
<glyph unicode="&quot;" horiz-adv-x="1296" d="M12 446l41 17q29 -142 88 -243.5t161.5 -158.5t254.5 -57q132 0 227.5 57t147 171.5t51.5 283.5v250h-565q-8 0 -8 20t8 21q102 -2 283 -3t282 -1v233q0 172 -47.5 287.5t-145.5 173t-250 59.5q-118 0 -215 -61.5t-159.5 -151t-83.5 -171.5q0 -9 -6 -17t-10 -8q-3 3 -8 9 t-5 12v8q20 93 84.5 189.5t171.5 162.5t244 66h4q162 0 291.5 -69t217.5 -188t133.5 -266t45.5 -305v-12q0 -153 -42.5 -295.5t-127.5 -254.5t-210 -176.5t-283 -64.5h-25q-168 8 -278.5 63t-174 158.5t-92.5 261.5z"/>
<glyph unicode="#" horiz-adv-x="723" d="M20 -156l336 1066l250 782h70l-336 -1074l-250 -774h-70z"/>
<glyph unicode="$" horiz-adv-x="698" d="M16 1168q1 2 3.5 5t4.5 3q108 49 153 115.5t53 100.5q-62 -20 -74 -20q-47 0 -79 34.5t-32 76.5q0 33 25 65t65 41q12 5 45 5q53 0 88 -39t35 -89q0 -37 -8 -53q-8 -22 -42.5 -70.5t-91.5 -99.5t-128 -79l-9 -5q-8 1 -8 9zM340 1168q1 2 3.5 5t4.5 3q108 49 154 115.5 t55 100.5q-63 -20 -73 -20q-47 0 -79.5 34.5t-32.5 76.5q0 33 25 65t66 41q12 5 41 5q52 0 87 -41t35 -91q0 -24 -8 -49q-8 -22 -42 -70.5t-91 -99.5t-129 -79l-8 -5q-8 1 -8 9z"/>
<glyph unicode="%" horiz-adv-x="321" d="M8 114q0 50 37 89t99 39q64 0 97 -37t33 -91v-8q0 -46 -34 -80t-92 -34q-64 0 -102 36t-38 86zM8 762q0 50 37 88.5t99 38.5q63 0 96.5 -37.5t33.5 -89.5v-12q0 -49 -34 -82t-92 -33q-64 0 -102 38.5t-38 88.5z"/>
<glyph unicode="&amp;" horiz-adv-x="1229" d="M76 200l416 328l-416 328l47 58l571 -386l-571 -384zM534 200l416 328l-416 328l48 58l571 -386l-571 -384z"/>
<glyph unicode="'" horiz-adv-x="944" d="M12 278l29 8q34 -137 118.5 -211.5t246.5 -74.5q86 0 152 35t102 105q36 72 36 176v12l-4 160q-70 -1 -195 -2.5t-194 -1.5q-8 0 -8 12q0 16 8 16q16 0 68.5 -2t82.5 -2q72 0 140 1.5t98 2.5l4 152q-7 332 -307 332q-87 0 -157.5 -40t-114.5 -100q-43 -58 -55 -114 q0 -12 -13 -13q-4 0 -8 5.5t-4 11.5q27 103 120 188.5t241 85.5h4q108 0 197 -44t150 -118t94 -170t33 -196v-29q0 -94 -30 -180.5t-89.5 -155.5t-145.5 -108t-193 -39h-12q-120 4 -199 35t-125.5 95t-69.5 168z"/>
<glyph unicode="(" horiz-adv-x="395" d="M4 782q0 278 89.5 531t254.5 411q4 0 4 -16q0 -25 -16 -53q-84 -150 -130 -389.5t-46 -499.5q0 -182 22 -361t62 -333t92 -256q12 -24 12 -54v-20q-166 209 -255 484t-89 556z"/>
<glyph unicode=")" horiz-adv-x="420" d="M8 1708q0 5 2 8l2 4l4 4q82 -78 147 -184t108 -228.5t64 -254t21 -271.5q0 -185 -39 -373t-116 -360.5t-185 -310.5h-4v12q0 20 16 62q42 79 74 185.5t54 230t33 259t11 275.5q0 172 -18 339t-57 309.5t-97 240.5q-20 42 -20 53z"/>
<glyph unicode="*" horiz-adv-x="772" d="M0 1290q0 47 35 98.5t105 85.5q74 38 208 38q86 0 162 -20t116 -58q38 -40 60 -104t22 -130q0 -136 -86 -246q-30 -36 -99 -100t-113 -109t-75.5 -102t-31.5 -119q0 -12 5 -34q6 -24 8 -36v-4q0 -12 -25 -12q-7 0 -14 5t-7 11q-24 142 -24 230q0 86 20 148q26 60 62 103 t96 101t88 94q82 112 82 185q0 67 -58 119q-56 50 -180 49q-78 -1 -147 -21q-28 -8 -46.5 -25t-18.5 -28l8 -4q44 -8 67 -40.5t23 -70.5q0 -35 -20 -66t-50 -40q-58 -12 -62 -12q-48 0 -79 34t-31 80zM172 110q0 48 33 86t90 38q58 0 88.5 -36t30.5 -88q0 -50 -31 -84 t-88 -34t-90 35.5t-33 82.5z"/>
<glyph unicode="+" horiz-adv-x="420" d="M20 -213q1 1 3.5 2.5t4.5 1.5q130 56 185 133t65 117q-46 -21 -82 -21q-56 0 -93 38q-37 40 -37 90q0 39 28 77.5t78 52.5q6 0 20 2t21 2q68 0 111.5 -47t43.5 -108q0 -33 -12 -65q-30 -62 -109 -149t-206 -134h-8q-3 0 -7 3t-6 5zM98 762q0 50 36 88.5t100 38.5 q41 0 70.5 -18.5t44.5 -47.5t15 -61q0 -52 -34 -90q-34 -37 -96 -37q-63 0 -99.5 38.5t-36.5 88.5z"/>
<glyph unicode="," horiz-adv-x="1075" d="M12 570q0 202 16 351.5t59 263.5t127 185.5t216 91.5q70 12 220 20t227 21t114 57q3 6 8 9t9 4q4 -1 4 -21q0 -32 -18 -84q-18 -54 -40 -76q-36 -40 -101 -56t-149.5 -21t-187 -11.5t-172.5 -25.5q-174 -42 -234.5 -215.5t-60.5 -329.5q0 -10 1.5 -17.5t2.5 -11.5 q7 38 46 113t132 143t240 68q152 0 260.5 -74t163.5 -193t55 -253q0 -101 -31 -194.5t-93.5 -169.5t-155 -120t-211.5 -44q-94 0 -174.5 36t-141.5 110t-96 187t-35 257zM217 398q0 -170 51.5 -280t202.5 -110q287 0 287 390v294q0 134 -66 221t-213 87q-136 0 -199 -94.5 t-63 -225.5v-282z"/>
<glyph unicode="-" horiz-adv-x="420" d="M16 -213q2 1 6 2.5t6 1.5q130 56 185 133t65 117q-46 -21 -82 -21q-56 0 -93 38q-37 40 -37 90q0 39 28 77.5t78 52.5q6 0 20 2t21 2q65 0 110 -46.5t45 -104.5q0 -27 -16 -69q-28 -59 -106 -147.5t-201 -135.5h-12q-6 0 -10.5 3t-6.5 5z"/>
<glyph unicode="." horiz-adv-x="1423" d="M20 4v33h94v934h-94v29h369v-29h-94v-447h143q3 87 30.5 176.5t82.5 164.5t144 121t210 46q148 0 254 -75t159.5 -196t53.5 -257t-53 -257t-160 -196t-254 -75q-106 0 -190.5 38t-145 107t-93.5 160q-34 91 -38 194h-143v-438h98v-33h-373zM639 312q0 -86 26.5 -154.5 t86.5 -109t153 -40.5q130 0 201 86q70 88 70 218v380q0 149 -73 230.5t-198 81.5q-117 0 -191.5 -82.5t-74.5 -229.5v-380z"/>
<glyph unicode="/" horiz-adv-x="919" d="M20 508q0 100 29 194.5t85 169t138 117.5q80 43 182 43q162 0 249 -70t114 -159t27 -168v-41h-602v-328q0 -117 65 -181.5t160 -64.5q278 6 348 287q0 14 6.5 23.5t14.5 9.5t14 -8t6 -20v-13q-82 -319 -389 -319q-140 0 -241.5 75t-153.5 196t-52 257zM110 1302 q0 44 32 79.5t88 35.5q58 0 90 -33.5t32 -81.5q0 -46 -32 -78t-90 -32q-54 0 -87 33.5t-33 76.5zM242 631h410v180q0 86 -61 135.5t-141 49.5q-83 0 -145.5 -52t-62.5 -141v-172zM528 1302q0 44 33 79.5t91 35.5q56 0 87 -33.5t31 -81.5q0 -46 -32 -78t-86 -32 q-58 0 -91 33.5t-33 76.5z"/>
<glyph unicode="0" horiz-adv-x="1222" d="M8 794q0 158 37 306t109.5 265t181 185t246.5 68t246.5 -68t181 -185t109 -264t36.5 -307q0 -156 -36.5 -302.5t-109 -263t-181 -184.5t-246.5 -68t-246 67.5t-181 184.5t-110 263.5t-37 302.5zM295 467q0 -211 70.5 -329t216.5 -118q290 0 290 443v619q0 226 -68 358 q-66 133 -218 133h-4q-286 1 -287 -487v-619z"/>
<glyph unicode="1" horiz-adv-x="674" d="M4 1503v45l422 58l16 -17v-1548h164v-37h-524v37h156v1499z"/>
<glyph unicode="2" horiz-adv-x="1124" d="M4 4v123q156 156 234 221q23 19 109.5 99.5t149.5 140.5t97 92q106 96 168 218t62 232v13q-6 150 -40.5 239.5t-104 129.5t-187.5 40q-156 -2 -236 -60q-78 -58 -100 -96q30 12 65 13q58 0 102.5 -40.5t53.5 -102.5v-16q0 -65 -47.5 -106.5t-108.5 -41.5t-115 41 q-58 45 -57 119q-1 58 49 155q120 189 451 189h12q125 0 234.5 -39.5t180.5 -118t81 -190.5v-42q1 -292 -389 -594q0 -1 -152 -118.5t-225 -179.5q-68 -56 -96.5 -79t-54.5 -45h658q82 0 129 40t66 91t30 114t17 71q2 6 6 7t6 1q20 0 21 -156v-364h-1069z"/>
<glyph unicode="3" horiz-adv-x="1075" d="M20 291l4 8q0 67 47 109t105 42q86 0 127 -69q21 -40 21 -82q0 -56 -48 -101.5t-116 -45.5q-6 0 -20.5 4t-20.5 4q22 -36 101.5 -90t233.5 -54q120 0 194 66t104 165t30 207q0 186 -100 282t-260 96h-209v52q12 0 72.5 -2t86.5 -2q16 0 30 2t20 2q145 0 240.5 85 t95.5 247q0 120 -21.5 196t-80 119t-164.5 46h-25q-84 0 -151.5 -28.5t-107.5 -64.5t-40 -54q1 -1 3.5 -2.5t4.5 -1.5h4q16 4 46 4q51 0 78.5 -35t27.5 -80t-20 -65q-50 -50 -112 -50q-39 0 -74.5 27t-47.5 67q-8 22 -8 37q0 61 53 129t147.5 113t208.5 45q148 0 265.5 -48 t184.5 -138t67 -208v-4q-2 -102 -67 -187t-153 -133q-90 -48 -154 -48l-4 -4q44 -8 134 -42t179 -120t89 -223q0 -138 -71 -251.5t-195 -179t-275 -65.5q-130 0 -235.5 45.5t-164.5 121t-59 157.5z"/>
<glyph unicode="4" horiz-adv-x="1173" d="M8 484v52q76 146 163.5 290.5t179 279t183.5 260.5q92 124 212 284h52v-1126h279v180h49v-356h-49v136h-279v-443h181v-37h-569v37h180v443h-582zM53 524h537v848q-70 -98 -287 -422q-75 -114 -147.5 -240t-102.5 -186z"/>
<glyph unicode="5" horiz-adv-x="1046" d="M8 278q0 79 46.5 123.5t109.5 44.5q40 0 79.5 -19t59.5 -55q17 -32 17 -73q0 -56 -47 -93.5t-105 -37.5q-26 0 -66 16h-4l-4 -4q0 -10 43 -49t115 -71t162 -32q87 0 172.5 55t140.5 165t55 264v12q0 143 -69 242.5t-177 147.5t-224 48q-138 0 -250 -65v606q0 30 16 52 t45 22h589q40 0 77 10.5t43 30.5q12 32 28 32q8 0 14 -12t6 -32q0 -50 -28 -119q-12 -32 -63 -71.5t-89 -39.5h-606v-405q54 41 234 41q110 0 222 -25t210 -80.5t161 -150.5q63 -96 66 -232v-16q0 -130 -51.5 -229t-137 -164t-187 -96t-197.5 -31q-122 0 -213 43t-140 109.5 t-53 137.5z"/>
<glyph unicode="6" horiz-adv-x="1124" d="M12 660q0 270 119 463t282 305t307 163t190 51v-53q-44 -7 -114 -30.5t-147 -64.5t-137 -93q-102 -84 -157 -195.5t-72 -201.5t-17 -140q0 -3 2 -4h2q9 34 44.5 76t95 71t135.5 29h4q141 0 257 -67t183.5 -186t67.5 -263q0 -151 -47 -261t-122.5 -175t-166.5 -95 t-181 -30q-132 0 -252 69.5t-198 227.5t-78 404zM258 389q0 -198 66 -293.5t216 -95.5q270 0 271 393v271q0 176 -63.5 251.5t-202.5 75.5q-86 0 -151.5 -45.5t-100.5 -121.5q-35 -74 -35 -160v-275z"/>
<glyph unicode="7" horiz-adv-x="1046" d="M4 1172l82 405h885l29 -41l-422 -774q-41 -79 -63.5 -164.5t-22.5 -151.5q0 -52 28 -140q28 -90 33 -114q0 -6 2 -23t2 -25q0 -67 -34.5 -122t-96.5 -55q-131 0 -131 164q0 23 4.5 53t13.5 65.5t11 45.5q27 92 70.5 197.5t72.5 154.5l397 729h-659q-83 0 -103 -20 q-15 -16 -31.5 -83t-25.5 -109z"/>
<glyph unicode="8" horiz-adv-x="1100" d="M24 406q0 160 90 256.5t196 135t182 46.5h20q-2 1 -7 2.5t-13 1.5q-86 7 -186.5 51t-170 128.5t-69.5 205.5l4 8q0 102 63 185.5t169 129.5t226 46q87 0 169.5 -26.5t149.5 -75t105.5 -115t38.5 -144.5q0 -178 -138 -273q-137 -96 -283 -120q-6 0 -10.5 -1.5t-6.5 -2.5 h17q46 -5 117.5 -24.5t152 -64.5t139.5 -127t61 -198v-20q0 -102 -43 -184.5t-117 -137t-166 -81.5t-190 -27q-128 0 -243 49t-186 145.5t-71 231.5zM242 422q0 -2 2 -6t2 -6q6 -402 282 -402q93 0 155.5 51t93 142t30.5 213q-2 108 -37.5 187t-84.5 126t-94 69.5t-63 22.5 q-16 0 -63 -23.5t-98 -69t-88 -123t-37 -181.5zM299 1245q0 -132 45.5 -214.5t100.5 -118.5t83 -36t82.5 37t99 120.5t44.5 211.5q0 97 -27.5 171t-78.5 114q-52 39 -120 39q-106 0 -167.5 -94t-61.5 -230z"/>
<glyph unicode="9" horiz-adv-x="1124" d="M12 1048q0 169 69 298t188 198.5t259 69.5q144 0 265 -79t192.5 -238t71.5 -387q0 -269 -119.5 -461.5t-283 -304t-307 -163t-187.5 -51.5v50q82 13 194 60t203 124q103 88 157 199t69 199t15 138v8q-40 -76 -120.5 -128t-161.5 -52l-12 -4q-148 0 -260 68t-172 187 t-60 269zM258 901q0 -327 266 -327q60 0 113.5 28t92 76t60 107t21.5 116v275q-1 388 -283 388q-270 0 -270 -392v-271z"/>
<glyph unicode=":" horiz-adv-x="2246" d="M24 4v41h156l672 917q-58 47 -126 142.5t-151 210.5t-163 178t-174 63h-21v-8q30 -3 47.5 -31.5t17.5 -62.5q0 -44 -34 -79t-92 -35q-2 0 -6 2t-6 2q-44 3 -73.5 38.5t-29.5 79.5q0 55 44 99.5t124 44.5h4q95 0 171 -41t135 -105t140 -176t115 -154l226 -278l-566 -807 h156v-41h-566zM848 4v37h156v1499h-156v37h524v-37h-156v-1499h156v-37h-524zM1220 852l230 278q44 53 119.5 160.5t132.5 170.5t132.5 104t172.5 41h8q78 0 121 -44t43 -100q0 -46 -27.5 -81t-75.5 -37q-2 0 -8 -2t-8 -2q-60 0 -93 35t-33 79q0 33 20 62.5t49 31.5v8h-25 q-93 0 -171.5 -62.5t-159.5 -176t-149 -210.5t-126 -145l672 -917h156v-41h-566v41h156z"/>
<glyph unicode=";" horiz-adv-x="1648" d="M12 4v33h128l446 615q-38 32 -109 129.5t-124 147.5t-127 50h-9v-4q18 -3 27.5 -22t9.5 -39q0 -25 -18 -47.5t-48 -22.5q-2 1 -6 2.5t-6 1.5q-26 0 -46 24t-20 50q0 34 27 60t76 26h13q74 0 125 -39t119.5 -130t94.5 -118l152 -160l-373 -524h140v-33h-472zM606 4v33h115 v934h-115v29h406v-29h-111v-934h111v-33h-406zM905 561l152 160q32 36 78.5 100t78.5 100.5t77 61.5t101 25h17q52 0 79.5 -28t27.5 -62q0 -28 -19 -49t-51 -21q-2 0 -8 -2t-8 -2q-32 0 -51 21t-19 49q0 22 13.5 41.5t31.5 19.5q-86 0 -139 -46.5t-122 -142.5t-112 -134 l451 -615h119v-33h-464v33h140z"/>
<glyph unicode="&lt;" horiz-adv-x="1100" d="M4 4v37h136v1499h-136v37h922v-311q0 21 -27 96.5t-59 111.5q-58 66 -168 66h-324v-762q18 41 78 102.5t168 61.5q144 0 247 -69t155 -181t52 -238q0 -92 -29 -179t-86.5 -155t-143 -108t-195.5 -40q-117 0 -174.5 56.5t-71.5 94.5v-119h-344zM344 205q0 -16 30.5 -66 t84 -90.5t123.5 -40.5q76 0 122.5 20t69.5 70q24 52 24 144v446q0 217 -200 217h-12q-70 0 -125 -46.5t-86 -106.5t-31 -92v-455z"/>
<glyph unicode="=" horiz-adv-x="346" d="M12 114q0 50 38 89t98 39q62 0 96 -37t34 -91q0 -50 -35 -86t-95 -36t-98 36.5t-38 85.5z"/>
<glyph unicode="&gt;" horiz-adv-x="2148" d="M16 4v37h189v1499h-189v37h594v-37h-184v-729h226q5 134 46.5 273.5t127.5 257.5t225 191t329 73q174 0 311 -68t228 -184t136.5 -264t45.5 -304q0 -158 -45.5 -305.5t-136.5 -263t-228 -183t-311 -67.5q-166 0 -299 59t-226.5 164.5t-144.5 243.5q-50 139 -58 299h-226 v-692h196v-37h-606zM930 484q0 -144 49.5 -251t149 -166t243.5 -59q138 0 238.5 63t152 171t51.5 242v581q0 158 -54.5 273.5t-155 175t-232.5 59.5t-232 -59.5t-155 -174.5t-55 -274v-581z"/>
<glyph unicode="?" horiz-adv-x="1149" d="M20 12v33h111v1491h-111v33h926q78 1 78 -45v-295v-70q0 -11 -6 -20t-10 -9q-12 0 -12 29q-6 66 -36 153.5t-88.5 153.5t-142.5 66h-385v-684h234q31 0 51.5 19.5t32 47t18 56t12.5 57.5q10 36 16 98q0 6 5.5 11.5t11.5 5.5q4 0 10.5 -6.5t6.5 -18.5v-544q0 -12 -6 -18.5 t-11 -6.5q-2 0 -9.5 6.5t-7.5 9.5q-3 12 -11.5 69.5t-18.5 92t-34 59.5t-66 25h-234v-770h422q77 0 126.5 40t75 97.5t37 122.5t15.5 84q10 103 37 103q2 -1 5.5 -2.5t6.5 -1.5q21 -16 21 -58v-348q0 -32 -12 -49t-46 -17h-1012zM274 1724q0 37 26 66q24 28 68 28 q47 0 71 -27t24 -67q0 -38 -24.5 -64t-70.5 -26q-43 0 -68.5 27t-25.5 63zM606 1724q0 36 27 65t71 29q45 0 69.5 -27t24.5 -67q0 -36 -25 -63t-69 -27t-71 27.5t-27 62.5z"/>
<glyph unicode="@" horiz-adv-x="346" d="M8 1352q0 102 29 160q39 58 111 57q31 0 60 -13q30 -12 42 -36q32 -66 32 -180q-14 -74 -37 -204t-32 -214q-6 -42 -16.5 -155t-21.5 -240.5t-11 -133.5h-29q0 8 -9.5 130t-21.5 237q-12 116 -22 162q-20 80 -45 241t-25 177q-4 0 -4 12zM37 119q0 46 33.5 82.5 t89.5 36.5q58 0 90 -36q32 -38 32 -88q0 -47 -30 -80.5t-88 -33.5t-92.5 36.5t-34.5 82.5z"/>
<glyph unicode="A" horiz-adv-x="1448" d="M16 786q0 188 66.5 353t198 267t317.5 102v106h-156v36h524v-36h-159v-106q186 0 317.5 -102t197.5 -267t66 -353q0 -138 -36.5 -267t-110 -233t-183.5 -164t-251 -60v-99h168v-45h-533v45h156v99q-140 0 -250 60t-183.5 163t-111 233t-37.5 268zM230 536q0 -188 77 -285 t159 -123t128 -26l4 4v1368q-40 0 -122.5 -25t-164 -122t-81.5 -287v-504zM807 102q46 0 129.5 26.5t161.5 123t78 284.5v504q0 190 -80 287.5t-162 122t-127 24.5v-1372z"/>
<glyph unicode="B" horiz-adv-x="1345" d="M20 4v37h111v1499h-111v37h439v-37h-115v-1192l631 988v204h-119v37h442v-37h-114v-1499h114v-37h-438v37h115v1188l-631 -995v-193h119v-37h-443z"/>
<glyph unicode="C" horiz-adv-x="1272" d="M4 778q0 154 45 300t133 263t217.5 185t292.5 68h8q106 0 177.5 -24t119 -55.5t51.5 -31.5l4 4l86 86q5 5 15.5 13t18.5 8q20 0 20 -38v-384q0 -12 -6 -18.5t-10 -6.5q-10 1 -17 25q-6 45 -57.5 138.5t-150.5 169.5t-239 76q-227 0 -336.5 -128t-109.5 -392v-520 q0 -163 52.5 -278.5t150 -174.5t227.5 -59l4 -4q128 0 222 67.5t149 155t91 174.5t42 87q16 0 16 -95v-377q0 -20 -12 -20h-8q-74 70 -100 96l-43 43q-169 -168 -361 -168q-169 0 -299.5 67.5t-218.5 183.5t-131 261t-43 303z"/>
<glyph unicode="D" horiz-adv-x="1198" d="M16 0v41h111v1499h-111v37h562q520 -1 520 -365q0 -146 -83 -225t-166 -103.5t-124 -27.5q46 -2 138 -30t183.5 -121t91.5 -267q0 -141 -52.5 -238.5t-155 -148.5t-246.5 -51h-668zM344 41h250q154 0 224.5 61.5t70.5 196.5v271q0 78 -31.5 136.5t-98 92t-165.5 33.5 h-250v-791zM344 872h250q136 0 203 52t67 162v241q0 109 -64 161t-206 52h-250v-668z"/>
<glyph unicode="E" horiz-adv-x="1272" d="M20 1540v37h447v-37h-119l377 -884l327 884h-114v37h274v-37h-114l-398 -1073l-24 -61q-30 -77 -60 -153t-64 -134t-80 -94.5t-108 -36.5q-80 0 -126 40t-46 91q0 46 34 82.5t90 36.5q65 0 97.5 -36.5t32.5 -82.5q0 -34 -15 -60t-38 -26h-4q90 8 153.5 143.5t88.5 225.5 l-467 1072l-24 66h-120z"/>
<glyph unicode="F" horiz-adv-x="1345" d="M4 4v37h110l349 1073l163 488h26l352 -1074l164 -487h118v-37h-475v37h119l-152 447h-471l-151 -447h122v-37h-274zM312 532h454l-226 668z"/>
<glyph unicode="G" horiz-adv-x="1345" d="M16 4v37h124v1499h-124v37h1266v-37h-114v-1499h114v-37h-442v37h114v1499h-606v-1499h111v-37h-443z"/>
<glyph unicode="H" horiz-adv-x="1075" d="M20 4v37h111v1499h-111v37h578q135 0 232 -62.5t145.5 -160.5t48.5 -203q0 -110 -47.5 -208.5t-144 -158t-234.5 -59.5h-254v-684h115v-37h-439zM344 762h192q120 0 189 93t69 296q0 389 -258 389h-192v-778z"/>
<glyph unicode="I" horiz-adv-x="2025" d="M4 0v41h110v1499h-110v37h438v-37h-114v-1499h556v1499h-114v37h438v-37h-114v-1499h556v1499h-114v37h442v-37h-118v-1499h118v-41h-1974z"/>
<glyph unicode="J" horiz-adv-x="1526" d="M20 786q0 156 47 303t139.5 264t230.5 185q139 68 313 68q176 0 312 -68t228 -184t138 -263t46 -305q0 -160 -46 -306t-137.5 -262t-229 -183.5t-311.5 -67.5t-312.5 67.5t-231 184.5t-139.5 263t-47 304zM303 484q0 -210 114.5 -343t332.5 -133q138 0 238 61t152 169 t52 246v573q0 150 -56 266t-156 178.5t-230 62.5t-232 -63t-158.5 -178.5t-56.5 -265.5v-573z"/>
<glyph unicode="K" horiz-adv-x="1476" d="M0 168q0 39 22 76.5t60 54.5q38 13 74 13q45 0 81.5 -25t57.5 -64t21 -79q0 -52 -30 -82l-4 -9h4q60 18 109 73.5t77 133.5t28 154v1126h-115v37h1028v-37h-115v-1499h115v-37h-327v1536h-550v-1126q0 -102 -39 -198t-114 -156t-178 -60q-96 0 -150.5 50.5t-54.5 117.5z "/>
<glyph unicode="L" horiz-adv-x="1296" d="M20 41h168q116 251 203 472t153.5 478.5t102.5 548.5h-123v37h676v-37h-114v-1499h159v-397q0 6 -11.5 65t-30.5 124t-39 97q-50 74 -148 74h-795q-36 0 -54.5 -14t-56.5 -56q-24 -37 -43.5 -92t-33 -105.5t-13.5 -56.5v361zM234 41h642v1499h-192q-38 -304 -99 -549.5 t-144 -462.5t-207 -487z"/>
<glyph unicode="M" horiz-adv-x="1124" d="M16 4v37h124v1499h-120v37h439v-37h-111v-680h230q150 0 261 -50t170.5 -145t59.5 -223q0 -154 -55.5 -251t-168 -142t-284.5 -45h-545zM348 41h213q84 0 144.5 28t99.5 116.5t39 256.5q0 157 -36 240.5t-92 110t-134 26.5h-234v-778z"/>
<glyph unicode="N" horiz-adv-x="1370" d="M20 1130l33 410q-1 37 61 37h1144q1 -1 7.5 -7t10.5 -8l6 -6l41 -442h-45q0 10 -13 68t-33 121t-44 102q-78 135 -205 135h-209v-1499h136v-37h-488v37h143v1499h-225q-135 0 -205 -148q-30 -51 -49.5 -140.5t-19.5 -121.5h-46z"/>
<glyph unicode="O" horiz-adv-x="2099" d="M24 1540v37h447v-37h-115v-1499h558v1499h-120v37h443v-37h-115v-1499h558v1499h-116v37h439v-37h-115v-1499h148v-393q0 92 -42 185t-110 171h-1856v37h120v1499h-124z"/>
<glyph unicode="P" horiz-adv-x="1075" d="M12 291l4 8q0 67 46.5 109t105.5 42q38 0 74.5 -17t56.5 -52q21 -40 21 -78q0 -60 -47 -105.5t-117 -45.5q-6 0 -21 4t-21 4q26 -36 108 -90t224 -54q120 0 194 66t104 165t30 207q0 186 -102 282t-266 96h-58v52h58q152 0 248 84t96 248q0 184 -57 272.5t-218 88.5 q-165 0 -267 -50.5t-138 -84.5v-192h-33v339h33v-94q60 46 165 84.5t240 38.5q146 0 262.5 -48t183 -138t66.5 -208v-4q-2 -102 -66.5 -184.5t-153.5 -129t-153 -46.5l-4 -4q44 -8 134 -41t179 -120.5t89 -231.5q0 -137 -71 -251t-194.5 -179.5t-271.5 -65.5 q-132 0 -238 45.5t-165.5 121t-59.5 157.5z"/>
<glyph unicode="Q" horiz-adv-x="1345" d="M8 4v37h111v1499h-111v37h442v-37h-114v-1192l630 988v204h-114v37h442v-37h-114v-1499h114v-37h-442v37h114v1188l-630 -995v-193h114v-37h-442zM344 1782l8 12l4 4q134 -78 300 -78q80 0 158 21t132 57l8 -16h4q-146 -115 -306 -115q-77 0 -156.5 30t-147.5 85h-4z"/>
<glyph unicode="R" horiz-adv-x="1374" d="M12 4v37h111v1499h-111v37h434v-37h-110v-1499h110v-37h-434zM352 852l230 278q44 53 118 159.5t132 170.5t133 105t173 41h9q79 0 119 -42t40 -98q0 -46 -28 -83t-70 -39q-2 0 -8 -2t-8 -2q-60 0 -93.5 35t-33.5 79q0 33 19.5 62.5t49.5 31.5v8h-24q-88 0 -165 -58.5 t-161.5 -175t-145 -202.5t-114.5 -137l672 -938h119v-41h-508v41h115z"/>
<glyph unicode="S" horiz-adv-x="1550" d="M12 4v37h123v1499h-123v37h447v-37h-115v-680h172q96 0 184.5 -26t157.5 -78.5t109.5 -133t40.5 -184.5q0 -130 -57 -228t-172 -152t-283 -54h-484zM344 41h156q134 0 208 89.5t74 307.5q0 206 -67 293.5t-195 87.5h-176v-778zM1032 4v37h115v1499h-115v37h442v-37h-118 v-1499h127v-37h-451z"/>
<glyph unicode="T" horiz-adv-x="1149" d="M12 4v37h111v1499h-111v37h926q30 0 54 -12t24 -37v-291v-69q0 -14 -6 -24t-10 -10q-12 0 -13 34q-4 66 -34.5 153.5t-89.5 153t-142 65.5h-385v-688h234q31 0 51.5 19.5t32.5 49t19 61.5t11 54q10 36 16 98q0 7 5 14t12 7q16 -1 16 -29v-552q0 -11 -5.5 -18t-10.5 -7 q-4 0 -10.5 6.5t-6.5 9.5q-4 17 -12 73t-18.5 91.5t-34 60.5t-65.5 25h-234v-774h422q77 0 126.5 40t75 97.5t37 121t15.5 85.5q10 103 32 103q12 0 17 -4q21 -11 21 -54v-356q0 -70 -58 -70h-1012z"/>
<glyph unicode="U" horiz-adv-x="1198" d="M20 4v37h115v1499h-115v37h1062q48 0 48 -45v-422q0 -9 -6 -16.5t-10 -7.5t-8 7.5t-4 16.5q-6 78 -26 170t-86 176t-187 84h-459v-1499h115v-37h-439z"/>
<glyph unicode="V" horiz-adv-x="1648" d="M24 4v37h111v1499h-111v37h365l381 -1073l41 -111l381 1073l41 111h348v-37h-115v-1499h115v-37h-443v37h116v1471l-374 -1074l-151 -434h-29l-372 1069l-148 426v-1458h115v-37h-271z"/>
<glyph unicode="W" horiz-adv-x="1374" d="M4 0v41h123v1499h-123v37h442v-37h-110v-1499h606v1499h-114v37h442v-37h-115v-1499h155v-397q0 64 -21 130t-57 125t-81 101h-1147z"/>
<glyph unicode="X" horiz-adv-x="1149" d="M16 1540v37h438v-37h-118v-688q0 -184 180 -184q84 0 148 26t90 44v802h-115v37h443v-37h-116v-1499h116v-37h-443v37h115v651q-26 -18 -101 -46t-186 -28q-336 0 -336 328v594h-115z"/>
<glyph unicode="Y" horiz-adv-x="1345" d="M20 4v37h124v1499h-124v37h447v-37h-119v-680h602v680h-118v37h442v-37h-115v-1499h127v-37h-450v37h114v783h-602v-783h119v-37h-447z"/>
<glyph unicode="Z" horiz-adv-x="1370" d="M16 82q0 8 17 8l8 4q44 -28 78 -28q46 0 87.5 29t47.5 57q8 30 9.5 143.5t14 198t58.5 153.5q62 90 152 121.5t138 34.5v4q-42 2 -128 27.5t-171 108.5t-85 237q0 122 60 212t176 137.5t276 47.5h552v-37h-118v-1499h118v-41h-487v41h160v766h-181q-58 0 -109.5 -17.5 t-101 -91t-67.5 -219.5q0 -18 -4 -58.5t-4 -56.5v-106q0 -76 -15 -125.5t-63 -83.5q-66 -49 -172 -49q-69 0 -140.5 22t-97.5 44q-8 8 -8 16zM484 1184q0 -144 36.5 -219t88 -96t116.5 -21h254v692h-213q-134 0 -208 -77t-74 -279z"/>
<glyph unicode="[" horiz-adv-x="1022" d="M16 4v33h103l283 447l-279 487h-103v29h378v-29h-91l193 -340l233 340h-107v29h242v-29h-102l-242 -373l336 -561h102v-33h-388v33h106l-246 413l-278 -413h110v-33h-250z"/>
<glyph unicode="\" horiz-adv-x="747" d="M24 1692h58l344 -1074l254 -774h-82l-332 1066z"/>
<glyph unicode="]" horiz-adv-x="1026" d="M16 848v152h582v-25h-94v-422h148q99 0 170.5 -35.5t107.5 -96.5t36 -139q0 -123 -78 -200.5t-249 -77.5h-447v33h136v938h-164q-66 0 -94 -33q-16 -22 -31.5 -50t-22.5 -44zM504 37h139q88 0 134.5 52.5t46.5 192.5q0 246 -168 246h-152v-491z"/>
<glyph unicode="^" horiz-adv-x="1229" d="M76 528l571 386l47 -58l-416 -328l416 -328l-47 -56zM534 528l572 386l47 -58l-415 -328l415 -328l-47 -56z"/>
<glyph unicode="_" horiz-adv-x="497" d="M12 570v106h422v-106h-422z"/>
<glyph unicode="`" horiz-adv-x="1155" d="M62 246v135h1032v-135h-1032zM62 656v134h1032v-134h-1032z"/>
<glyph unicode="a" horiz-adv-x="1173" d="M12 488q0 129 58 249.5t166 195.5t248 75l4 4v254h-128v28h430v-28h-126v-258q131 0 234.5 -77t159.5 -200.5t56 -255.5q0 -119 -48.5 -227t-150 -182t-251.5 -94v-316h126v-33h-430v33h128v316q-156 16 -263 91t-160 187t-53 238zM234 352q0 -205 95 -270.5t159 -69.5 v967h-9q-36 0 -91.5 -22.5t-104.5 -102.5t-49 -232v-270zM668 12q62 3 154 69.5t92 270.5v270q0 152 -48.5 232t-103 102.5t-90.5 22.5h-4v-967z"/>
<glyph unicode="b" horiz-adv-x="1075" d="M24 4v33h90v934h-90v29h361v-29h-94v-737l451 618v119h-103v29h373v-29h-94v-934h94v-33h-373v33h103v733l-451 -618v-115h94v-33h-361z"/>
<glyph unicode="c" horiz-adv-x="870" d="M12 500q0 132 55 253t161.5 196t250.5 75h9q70 0 117 -16t76 -37t27 -21l4 4l58 54q3 4 9.5 10t10.5 6q12 0 13 -24v-254q0 -3 -4.5 -8t-8.5 -5q-8 1 -8 13q-4 30 -38 89t-98 107.5t-150 48.5h-4q-282 1 -283 -327v-336q0 -144 75.5 -234t194.5 -90l9 4q82 2 141 44 t92.5 93t59 106.5t30.5 55.5q8 0 8 -45v-250q0 -8 -3 -11.5t-5 -4.5h-4q-30 28 -54.5 52t-35.5 34q-105 -106 -229 -106q-150 0 -258 74t-163 194t-55 256z"/>
<glyph unicode="d" horiz-adv-x="870" d="M8 4v33h102v934h-102v29h451q307 0 307 -230q0 -92 -50.5 -145t-102 -71t-77.5 -22q30 -2 92 -19t122.5 -73t60.5 -158v-4q-2 -98 -38 -159t-103.5 -88t-169.5 -27h-492zM286 37h156q89 0 132.5 43.5t43.5 107.5v74q0 118 -34 188t-142 70h-156v-483zM286 549h164 q70 0 109 35.5t39 95.5v86q0 95 -29 150t-119 55h-164v-422z"/>
<glyph unicode="e" horiz-adv-x="1100" d="M20 -254q0 46 33 80t87 34l4 5q114 -1 114 -103q0 -30 -6 -56t-10 -38q138 46 212 155t95 173l-409 975h-99v29h381v-29h-94l315 -750l258 750h-103v29h234v-29h-94l-295 -873q-59 -182 -182 -328.5t-305 -146.5h-16q-52 0 -86 38.5t-34 84.5z"/>
<glyph unicode="f" horiz-adv-x="973" d="M0 234q0 114 53 180q76 92 189.5 124t220.5 32h57v208q0 109 -32 159q-34 50 -124 50q-84 0 -134 -23.5t-50 -45.5q0 -4 6 -10.5t10 -6.5q58 -23 58 -82q0 -53 -41 -81q-49 -20 -73 -21q-41 0 -68.5 26.5t-30.5 67.5l-4 4q0 42 35.5 90.5t108.5 81.5t179 33 q131 0 204.5 -25.5t102.5 -76t29 -132.5v-581q0 -12 -2 -32.5t-2 -28.5q0 -98 78 -99q58 0 123 90q4 8 9.5 13.5l7.5 7.5v-8q0 -20 -29 -62.5t-87 -76t-142 -33.5q-74 0 -97 56.5t-23 94.5q-28 -38 -104 -95q-76 -56 -194 -56q-114 0 -174 77.5t-60 180.5zM172 270 q0 -8 2 -24.5t2 -24.5q6 -92 48 -138t96 -46q2 0 10 2t10 2q28 2 71 28t76 60.5t33 58.5v361q-118 -1 -180 -21q-168 -56 -168 -258z"/>
<glyph unicode="g" horiz-adv-x="948" d="M16 4v33h94v934h-94v29h885v-29h-94v-934h94v-33h-279v967h-336v-967h-270z"/>
<glyph unicode="h" horiz-adv-x="948" d="M4 -377h90v1348h-90v29h484q131 0 224.5 -71t141 -185t47.5 -240t-47.5 -241.5t-141.5 -187t-224 -71.5h-218v-381h94v-25h-360v25zM270 37h180q270 -1 271 323v304q0 146 -72.5 226.5t-206.5 80.5h-172v-934z"/>
<glyph unicode="i" horiz-adv-x="1501" d="M16 4v33h94v934h-94v33h373v-33h-98v-934h352v934h-103v29h374v-29h-95v-934h349v934h-95v29h365v-29h-94v-934h94v-33h-1422z"/>
<glyph unicode="j" horiz-adv-x="1001" d="M16 504q0 136 54 257t160 196t254 75t253 -75t157 -196t52 -257q0 -138 -52 -258t-157 -193t-253 -73t-254 74t-160 194t-54 256zM221 312q0 -137 66.5 -218.5t196.5 -81.5q132 0 199 77t67 223v364q0 148 -71 236t-195 88t-193.5 -87.5t-69.5 -236.5v-364z"/>
<glyph unicode="k" horiz-adv-x="1050" d="M20 98q0 34 25 65t61 33h17q52 0 73 -36.5t21 -81.5v-41q64 8 95.5 69.5t31.5 151.5v713h-94v29h746v-29h-95v-934h95v-33h-271v967h-344v-713q0 -125 -57.5 -191.5t-163.5 -66.5q-66 0 -103 29t-37 69z"/>
<glyph unicode="l" horiz-adv-x="973" d="M24 37h120q72 139 116 237t75 202t47 225t16 270h-95v29h573v-29h-94v-934h123v-258q-4 26 -15.5 74.5t-33.5 84.5q-12 20 -27 39t-22 27h-663q-4 0 -66 -53q-19 -34 -33.5 -82.5t-20.5 -73.5v242zM188 37h414v934h-164q-6 -202 -34 -352t-77 -276t-139 -306z"/>
<glyph unicode="m" horiz-adv-x="796" d="M12 4v33h94v934h-94v29h369v-29h-95v-418h136q133 0 220 -70.5t87 -200.5q0 -132 -79.5 -205t-239.5 -73h-398zM286 37h124q180 -1 180 245t-168 246h-136v-491z"/>
<glyph unicode="n" horiz-adv-x="923" d="M12 712l25 254q0 13 8.5 23.5t20.5 10.5h724q21 0 29 -9q13 -11 13 -25l32 -262h-32q0 12 -23 81.5t-43 103.5q-26 46 -63 64t-60 18h-123v-934h115v-33h-414v33h123v934h-127q-50 0 -89 -42.5t-61 -103.5t-22 -113h-33z"/>
<glyph unicode="o" horiz-adv-x="1476" d="M24 0v28h95v943h-95v29h374v-29h-103v-943h336v943h-91v29h370v-29h-95v-943h336v943h-94v29h369v-29h-95v-938h99v-250q0 59 -30 122t-73 99h-1073z"/>
<glyph unicode="p" horiz-adv-x="723" d="M20 188q0 44 31 71t68 27q57 0 81 -48q16 -22 17 -58q0 -32 -25.5 -59t-60.5 -27q-4 0 -15.5 4t-17.5 4q9 -24 54 -59t147 -35q116 0 166.5 83t50.5 200q0 125 -79 185t-199 60v34q122 0 194 41t72 155q0 117 -38 172.5t-138 61.5h-12q-66 0 -125 -21t-96 -46.5 t-37 -35.5v-107l-9 -4q-2 0 -7.5 2t-8.5 2v222h25v-62q124 82 266 82q94 0 170.5 -32t121 -91.5t44.5 -134.5v-4q-2 -66 -45 -117t-101 -77.5t-100 -26.5l-4 -4q66 -12 164 -68t98 -182q0 -88 -45 -160.5t-123 -115.5t-172 -43h-8q-90 0 -160 28.5t-107 77t-37 106.5z"/>
<glyph unicode="q" horiz-adv-x="1075" d="M24 4v33h90v934h-90v29h361v-29h-94v-697l451 545v152h-103v29h373v-29h-94v-934h94v-33h-373v33h103v713l-451 -541v-172h94v-33h-361zM246 1290q0 16 8 16q50 -34 121 -53.5t145 -19.5q152 -1 266 73q3 -3 7.5 -8t4.5 -8q-63 -63 -140.5 -97t-149.5 -34 q-150 0 -262 131z"/>
<glyph unicode="r" horiz-adv-x="1050" d="M28 4v33h95v934h-95v29h365v-29h-94v-934h94v-33h-365zM316 549l151 172q20 25 69.5 93t85 106.5t80 63t101.5 24.5h16q54 0 82.5 -27t28.5 -59q0 -30 -20 -52t-50 -22q-39 0 -62.5 24t-23.5 50q0 19 11 34.5t30 18.5q-82 0 -139.5 -48.5t-127.5 -148.5t-106 -135 l451 -606h94v-33h-401v33h94z"/>
<glyph unicode="s" horiz-adv-x="1173" d="M16 0v33h94v938h-94v29h373v-29h-98v-418h102q141 0 226 -68.5t85 -202.5q0 -146 -87 -212t-236 -66zM291 33h94q180 -1 180 249q1 238 -167 238h-107v-487zM750 4v33h94v934h-94v29h368v-29h-94v-934h98v-33h-372z"/>
<glyph unicode="t" horiz-adv-x="895" d="M4 508q0 100 29 194.5t85 169t137 117.5t183 43q162 0 249 -70t114 -159t27 -168v-41h-602v-328q0 -117 65 -181.5t159 -64.5q278 6 348 287q6 33 26 33q4 0 10 -11t6 -22v-8q-82 -319 -390 -319q-140 0 -241 75t-153 196t-52 257zM226 631h409v180q0 86 -60.5 135.5 t-140.5 49.5q-53 0 -101.5 -23t-77.5 -66t-29 -104v-172z"/>
<glyph unicode="u" horiz-adv-x="821" d="M8 4v33h94v934h-94v29h730q36 0 36 -34v-245q0 -6 -9 -27.5t-11 -21.5v16q0 36 -18 103t-63 123.5t-120 56.5h-275v-934h94v-33h-364z"/>
<glyph unicode="v" horiz-adv-x="1149" d="M20 4v33h82v934h-82v29h275l254 -709l262 709h279v-25h-86v-938h86v-33h-365v33h103v897l-336 -930h-29l-332 946v-913h99v-33h-210z"/>
<glyph unicode="w" horiz-adv-x="997" d="M20 0v33h82v938h-82v29h344v-29h-82v-938h374v938h-86v29h348v-29h-82v-934h98v-258q0 62 -29 124.5t-73 96.5h-812z"/>
<glyph unicode="x" horiz-adv-x="870" d="M4 971v29h348v-29h-86v-414q0 -62 24.5 -88.5t90.5 -26.5q54 0 94.5 11t56.5 18v500h-94v29h369v-29h-95v-934h95v-33h-369v33h94v409q-16 -11 -72 -27.5t-165 -16.5q-88 0 -146.5 45t-58.5 123v401h-86z"/>
<glyph unicode="y" horiz-adv-x="973" d="M12 4v33h94v934h-94v29h360v-29h-90v-418h344v418h-94v29h369v-29h-94v-934h94v-33h-369v33h94v483h-344v-483h90v-33h-360z"/>
<glyph unicode="z" horiz-adv-x="944" d="M12 49q1 1 3.5 2.5t4.5 1.5l8 5q24 -16 46 -17q30 0 58.5 19.5t31.5 41.5q4 12 4 58v45q0 137 49 205q26 41 71.5 63.5t89.5 33t44 9.5v4q-66 3 -166 47.5t-100 178.5q0 85 43.5 142t122.5 84.5t186 27.5h389v-29h-94v-934h94v-33h-373v33h98v479h-86q-61 0 -109.5 -37.5 t-62.5 -171.5q-8 -73 -8 -102v-33q0 -52 -9 -84.5t-40 -54.5q-48 -37 -127 -37q-48 0 -94 14.5t-70 34.5zM336 746q0 -130 42 -168t106 -38l8 5h130v426h-110q-77 0 -126.5 -41.5t-49.5 -183.5z"/>
<glyph unicode="{" horiz-adv-x="1501" d="M12 4v37h152l458 713l-454 786h-152v37h566v-37h-160l348 -594l373 594h-160v37h365v-37h-156l-398 -639l496 -860h156v-37h-570v37h160l-389 671l-430 -671h168v-37h-373z"/>
<glyph unicode="|" horiz-adv-x="149" d="M20 -102v1732h70v-1732h-70z"/>
<glyph unicode="}" horiz-adv-x="1399" d="M12 1278v299h721v-37h-139v-668h238q112 0 204 -32t158 -90t101.5 -136t35.5 -168q0 -132 -55.5 -231.5t-172 -155t-288.5 -55.5h-589v37h163v1499h-151q-69 0 -120.5 -36.5t-78.5 -97t-27 -128.5zM594 41h221q92 0 155.5 37.5t97.5 127.5q34 88 34 240q0 386 -266 386 h-242v-791z"/>
<glyph unicode="~" horiz-adv-x="1155" d="M62 450v136h448v450h135v-450h449v-136h-449v-450h-135v450h-448z"/>
<glyph unicode="¡" horiz-adv-x="796" d="M12 1401q0 25 21 47t49 22q52 0 86 -57q50 -70 107 -110q57 -39 85 -53v40q0 140 -36 209q-16 41 -17 53q0 26 19.5 42t45.5 16t48 -20t22 -50q0 -20 -12 -45q-20 -40 -29 -96t-12 -105t-4 -49q37 20 104 68t105 104q34 57 82 57q27 0 50 -24q24 -26 24 -54 q0 -24 -22 -43t-68 -26q-74 -10 -149 -43.5t-109 -54.5q28 -18 96 -47q68 -28 154 -31q38 0 57.5 -18.5t19.5 -42.5q0 -28 -25.5 -55t-51.5 -27q-30 0 -58 40q-51 64 -112.5 103.5t-92.5 52.5q0 -30 9.5 -100t39.5 -154q8 -33 8 -49q0 -30 -23 -47.5t-51 -17.5q-24 0 -42 18 t-18 47q0 5 12 41q32 89 32 201v61q-26 -12 -82 -50q-55 -40 -106 -106q-28 -40 -66 -40q-27 0 -50.5 25t-23.5 53q0 24 24 46.5t67 22.5q84 6 142.5 30.5t82.5 38.5q-26 18 -93 50t-153 49q-41 10 -63.5 32t-22.5 46z"/>
<glyph unicode="¢" horiz-adv-x="723" d="M12 688q0 95 40 181.5t118 141.5t186 58v95h33v-95q110 0 176 -40.5t66 -98.5v-20q-6 -26 -26 -42t-44 -16q-32 0 -63 25t-31 57q1 30 29 57q8 11 8 17q0 14 -30 27t-85 13v-708q96 3 162 59q66 55 92 141q7 20 17 21q2 -2 5 -6.5t3 -9.5v-13q-22 -98 -96.5 -161.5 t-182.5 -63.5v-107h-33v107q-160 10 -252 121.5t-92 259.5zM192 570q0 -204 164 -230v704q-67 -6 -116 -62q-48 -56 -48 -150v-262z"/>
<glyph unicode="£" horiz-adv-x="1075" d="M16 -254q0 45 33 79.5t86 34.5l5 5q114 -1 114 -103q0 -30 -6 -56t-10 -38q138 46 212 155t95 173l-410 975h-98v29h381v-29h-94l315 -750l258 750h-103v29h234v-29h-94l-295 -873q-59 -182 -183 -328q-122 -147 -304 -147h-17q-52 0 -85.5 38.5t-33.5 84.5zM266 1352 l8 12l4 4q136 -78 300 -78q76 0 156 21t138 57q2 -3 5 -8.5t3 -7.5q-146 -114 -306 -115q-164 1 -304 115h-4z"/>
<glyph unicode="¤" horiz-adv-x="846" d="M12 553q0 90 46 172.5t134 133.5q90 51 210 51t206.5 -50t130 -131t43.5 -172t-43 -172t-130 -130.5t-207 -49.5t-209 49.5t-135 130t-46 168.5z"/>
<glyph unicode="¥" horiz-adv-x="1349" d="M8 4v33h90v934h-90v29h360v-29h-94v-418h390v418h-94v29h356l4 -29h-98v-418h147q145 0 230 -69q85 -70 85 -202q0 -143 -89 -210.5t-239 -67.5h-396v33h94v483h-390v-483h94v-33h-360zM832 37h139q86 0 133 50.5t47 194.5q0 246 -168 246h-151v-491z"/>
<glyph unicode="¦" horiz-adv-x="149" d="M20 -102v1732h70v-1732h-70z"/>
<glyph unicode="§" horiz-adv-x="1976" d="M16 4v37h111v1499h-111v37h365l643 -1073l78 -123v1159h-115v37h271v-37h-120v-1552h-77l-643 1069l-250 421v-1437h114v-37h-266zM1254 1200q0 97 39 184.5t115 142t181 54.5q106 0 182 -54.5t115 -141.5t39 -185q0 -97 -39 -183.5t-114.5 -139.5t-182.5 -53 q-106 0 -181.5 53t-114.5 139t-39 184zM1294 725v45h602v-45h-602zM1401 1069q0 -102 46.5 -161.5t141.5 -59.5q189 0 189 221v258q0 108 -50 170.5t-139 62.5q-90 0 -139 -62t-49 -171v-258z"/>
<glyph unicode="¨" horiz-adv-x="723" d="M8 1368q0 46 32 80.5t87 34.5q58 0 90.5 -35t32.5 -80q0 -47 -32.5 -80.5t-90.5 -33.5q-54 0 -86.5 34t-32.5 80zM422 1364q0 46 34 82.5t89 36.5q54 0 86.5 -34.5t32.5 -76.5v-4q0 -46 -32 -80t-87 -34q-54 0 -88.5 33.5t-34.5 76.5z"/>
<glyph unicode="©" horiz-adv-x="1198" d="M16 856q0 138 64.5 263t192.5 201q129 76 305 76q133 0 237.5 -44.5t174.5 -121t105 -173.5t35 -201q0 -103 -35 -200.5t-105 -174.5t-175 -121t-237 -44q-176 0 -304.5 76t-193 201t-64.5 263zM62 860q0 -94 33 -184.5t98 -161t163 -112.5t222 -42l4 -4q121 0 215 41.5 t157 112t95.5 159.5t32.5 183q0 129 -58 245t-172 187q-114 72 -274 72q-164 0 -281 -70t-176 -184t-59 -242zM299 852q0 63 33.5 122t96.5 95.5t149 36.5q58 0 100.5 -17t67 -38.5t24.5 -26.5v-53q-14 22 -61 56t-131 34q-110 0 -174 -64.5t-64 -148.5q0 -86 64 -150 q64 -63 174 -63q64 0 107 22.5t64 47.5t21 33v-70q-12 -18 -58 -44t-134 -26q-128 0 -203.5 76t-75.5 178z"/>
<glyph unicode="ª"/>
<glyph unicode="«" horiz-adv-x="1476" d="M28 114q0 50 37.5 89t98.5 39q62 0 96.5 -37t34.5 -91q0 -50 -35 -86t-96 -36t-98.5 36.5t-37.5 85.5zM570 114q0 50 38 89q36 39 100 39q62 0 97 -37t35 -91q0 -50 -35 -86t-97 -36q-64 0 -101 36t-37 86zM1159 114q0 50 37.5 89t97.5 39q64 0 98 -37t34 -91 q0 -51 -34 -86.5t-98 -35.5q-61 0 -98 36.5t-37 85.5z"/>
<glyph unicode="¬" horiz-adv-x="1050" d="M8 729v37h192v205h-98v29h369v-29h-94v-201h352v-41h-352v-155q14 20 86.5 49t240.5 29q152 0 222 -85t70 -215q0 -112 -47 -226.5t-113 -174.5q-84 -80 -148 -126.5t-128 -75.5t-150 -56h-4q-5 0 -13 11.5t-8 17.5l4 4q191 66 315 204q52 60 84 158q31 98 31 198 q0 88 -26.5 162t-83.5 118t-144 44q-64 0 -115.5 -24t-72.5 -41v-508h77v-33h-344v33h90v692h-192z"/>
<glyph unicode="­" horiz-adv-x="420" d="M16 -213q2 1 6 2.5t6 1.5q130 56 185 133t65 117q-46 -21 -82 -21q-56 0 -93 38q-37 40 -37 90q0 39 28 77.5t78 52.5q6 0 20 2t21 2q65 0 110 -46.5t45 -104.5q0 -27 -16 -69q-28 -59 -106 -147.5t-201 -135.5h-12q-6 0 -10.5 3t-6.5 5z"/>
<glyph unicode="®" horiz-adv-x="1198" d="M16 856q0 138 64.5 263t192.5 201q129 76 305 76q133 0 237.5 -44.5t174.5 -121t105 -173.5t35 -201q0 -103 -35 -200.5t-105 -174.5t-175 -121t-237 -44q-176 0 -304.5 76t-193 201t-64.5 263zM62 860q0 -94 33 -184.5t98 -161t163 -112.5t222 -42l4 -4q121 0 215 41.5 t157 112t95.5 159.5t32.5 183q0 129 -58 245t-172 187q-114 72 -274 72q-164 0 -281 -70t-176 -184t-59 -242zM389 570v581h250q60 0 95.5 -47.5t35.5 -107.5q0 -64 -37.5 -112t-101.5 -48h-103l254 -266h-53l-254 266h-45v-266h-41zM430 880h209q44 0 67 32t23 75 q0 48 -25.5 85.5t-68.5 37.5h-205v-230z"/>
<glyph unicode="¯"/>
<glyph unicode="°" horiz-adv-x="1272" d="M4 102q0 32 23 59t55 27h4q66 0 90 -37t24 -81v-33q63 9 99.5 72t36.5 149v713h-98v29h622v-29h-102v-418h147q152 0 233 -68q82 -69 82 -203q0 -138 -88 -208t-243 -70h-381v33h106v934h-250v-713q0 -124 -56 -191t-156 -67q-71 0 -109.5 30.5t-38.5 71.5zM758 37h135 q94 0 139 55q45 54 45 190q1 238 -167 238h-152v-483z"/>
<glyph unicode="±" horiz-adv-x="1296" d="M4 766q0 157 45 304t134 266.5t218.5 188.5t290.5 69h8q136 0 241 -64t170 -160t89 -194v-8q0 -6 -6 -11.5t-10 -5.5q-16 1 -16 21q-18 80 -80 170t-158.5 152t-212.5 62q-447 0 -447 -520v-233q402 0 562 4q24 -1 24 -21t-24 -20h-562v-250q0 -116 30 -212t86 -163 t136 -102t178 -35q192 0 322 118t182 341q0 12 12 12q4 0 12.5 -7.5t8.5 -17.5v-4q-52 -234 -184 -354q-133 -120 -353 -129h-28q-161 0 -287.5 65.5t-210.5 179.5t-127 259t-43 299zM660 1659q0 2 3 6t5 6q42 46 70 78.5t43 53.5t26 45q8 18 31 31q22 13 42 13q2 0 11 -2 t10 -2q13 -6 13 -36q0 -38 -34 -58q-28 -18 -47 -32t-48 -38t-89 -74q-9 -8 -20 -8q-4 0 -10 5.5t-6 11.5z"/>
<glyph unicode="²"/>
<glyph unicode="³"/>
<glyph unicode="´" horiz-adv-x="420" d="M4 1110q0 4 12 28q102 106 133 146t56 100q12 28 42.5 47t59.5 19q17 0 33 -8q20 -14 20 -50q0 -58 -53 -82q-42 -26 -66.5 -44.5t-99.5 -80t-92 -75.5q-17 -16 -29 -16q-6 0 -11 5t-5 11z"/>
<glyph unicode="µ"/>
<glyph unicode="¶" horiz-adv-x="469" d="M24 4v37h107v921h-107v38h292v-959h102v-37h-394zM86 1364q0 50 37 90.5t98 40.5q66 0 100.5 -37.5t34.5 -89.5q0 -54 -35.5 -90.5t-99.5 -36.5q-61 0 -98 37t-37 86z"/>
<glyph unicode="·" horiz-adv-x="444" d="M24 1438q0 69 54 118.5t131 49.5q49 0 91 -22.5t68 -61.5q25 -38 25 -84q0 -78 -55.5 -125t-128.5 -47q-72 0 -128.5 47t-56.5 125zM66 1434q0 -56 38 -98t105 -42q58 0 100.5 43t42.5 101q-3 56 -44.5 95.5t-98.5 39.5q-67 0 -105 -41.5t-38 -97.5z"/>
<glyph unicode="¸"/>
<glyph unicode="¹"/>
<glyph unicode="º" horiz-adv-x="1001" d="M16 504q0 136 54 257t160 196t254 75t253 -75t157 -196t52 -257q0 -138 -52 -258t-157 -193t-253 -73t-254 74t-160 194t-54 256zM221 312q0 -137 66.5 -218.5t196.5 -81.5q132 0 199 77t67 223v364q0 148 -71 236t-195 88t-193.5 -87.5t-69.5 -236.5v-364zM274 446v111 h418v-111h-418z"/>
<glyph unicode="»"/>
<glyph unicode="¼"/>
<glyph unicode="½"/>
<glyph unicode="¾"/>
<glyph unicode="¿" horiz-adv-x="2173" d="M20 4v37h189v1499h-189v37h594v-37h-184v-729h226q5 134 46.5 273.5t127.5 257.5t225 191t329 73q175 0 311.5 -68t227.5 -184t137 -264t46 -304q0 -158 -46 -305.5t-137 -263t-227 -183.5q-138 -67 -312 -67q-166 0 -299 59t-226 164.5t-144 243.5t-59 299h-226v-692 h196v-37h-606zM832 1614q0 8 8 16q78 78 104 112.5t52 84.5q8 18 33 33.5t44 15.5q21 0 25 -4q16 -16 16 -41q0 -43 -41 -61q-72 -50 -98.5 -71t-102.5 -93q-12 -12 -24 -12q-6 0 -11 6.5t-5 13.5zM934 484q0 -142 49.5 -250t149 -167t243.5 -59q138 0 239 63t152 171 t51 242v581q0 158 -54.5 273.5t-155 175t-232.5 59.5t-232 -59.5t-155 -174.5t-55 -274v-581z"/>
<glyph unicode="À"/>
<glyph unicode="Á" horiz-adv-x="1951" d="M4 4v37h123v1499h-123v37h463v-37h-127v-680h622v680h-126v37h462v-37h-126v-680h229q140 0 251.5 -47.5t175.5 -144t64 -234.5t-63 -235t-179 -146t-270 -49h-540v37h122v783h-622v-783h127v-37h-463zM1172 37h212q278 0 279 397q0 190 -69.5 290t-188.5 100h-233v-787z "/>
<glyph unicode="Â"/>
<glyph unicode="Ã"/>
<glyph unicode="Ä"/>
<glyph unicode="Å" horiz-adv-x="846" d="M4 -20q0 51 32 88.5t83 37.5q57 0 90 -42t33 -97q0 -48 -27 -85.5t-75 -37.5h-5q0 -9 39.5 -31t95.5 -22q96 0 132 70.5t36 208.5v1462h-152v37h508v-37h-151v-1368q0 -196 -84.5 -297t-280.5 -101q-89 0 -150.5 32.5t-92.5 82t-31 99.5z"/>
<glyph unicode="Æ" horiz-adv-x="1321" d="M20 766q0 156 46 304t134.5 267t218 188t289.5 69h9q136 0 240.5 -64t169.5 -160t89 -194v-8q0 -6 -6 -11.5t-10 -5.5q-16 1 -16 21q-12 59 -50 124.5t-97 125.5t-137 97t-167 37q-447 0 -447 -520v-233q402 0 562 4q24 -1 24 -21t-24 -20h-562v-250q0 -116 30 -211.5 t86 -163t137 -102.5t178 -35q192 0 322 118q129 118 181 341q0 12 13 12q4 0 12.5 -7.5t8.5 -17.5v-4q-53 -234 -185 -354t-352 -129h-29q-161 0 -287.5 65.5t-210.5 179.5t-127 259t-43 299z"/>
<glyph unicode="Ç"/>
<glyph unicode="È" horiz-adv-x="522" d="M8 4v37h123v1499h-123v37h459v-37h-123v-1499h123v-37h-459z"/>
<glyph unicode="É" horiz-adv-x="1075" d="M16 -254q0 45 33 79.5t86 34.5l5 5q114 -1 114 -103q0 -30 -6 -56t-10 -38q138 46 212 155t95 173l-410 975h-98v29h381v-29h-94l315 -750l258 750h-103v29h234v-29h-94l-295 -873q-59 -182 -183 -328q-122 -147 -304 -147h-17q-52 0 -85.5 38.5t-33.5 84.5zM516 1110 q0 4 12 28q107 110 138.5 150t58.5 96q12 28 42.5 47t56.5 19q16 0 32 -8q20 -14 20 -50q0 -22 -14 -46q-12 -24 -34 -36q-40 -25 -66 -44t-79 -62.5t-113 -93.5q-26 -16 -38 -16q-6 0 -11 5t-5 11z"/>
<glyph unicode="Ê" horiz-adv-x="1149" d="M16 4v37h111v1499h-111v37h926q30 0 54 -12t24 -37v-291v-69q0 -14 -6 -24t-10 -10q-12 0 -13 34q-4 66 -34.5 153t-88.5 153t-143 66h-385v-688h234q31 0 51.5 19.5t32.5 47.5t18 58.5t12 58.5q10 36 16 98q0 7 5 14t12 7q17 -1 17 -29v-552q0 -12 -6 -18.5t-11 -6.5 q-2 0 -9.5 6.5t-7.5 9.5q-4 17 -12 73t-18.5 91.5t-34.5 60.5q-23 25 -65 25h-234v-774h422q77 0 126.5 40t75 97.5t37 122.5t15.5 84q10 103 32 103q12 0 17 -4q21 -10 21 -54v-356q0 -70 -58 -70h-1012zM475 1614q0 2 1.5 7.5t2.5 8.5q80 78 108.5 114t51.5 83 q10 19 34.5 34t47.5 15q21 0 25 -4q12 -6 12 -37q0 -18 -10.5 -37.5t-30.5 -27.5q-35 -23 -53 -37.5t-60 -51.5t-88 -75q-12 -12 -24 -12q-6 0 -11.5 6.5t-5.5 13.5z"/>
<glyph unicode="Ë" horiz-adv-x="1198" d="M24 4v37h116v1499h-116v37h1062q48 0 48 -45v-422q0 -8 -6 -16t-10 -8t-8 7.5t-4 16.5q-8 139 -67.5 284.5t-231.5 145.5h-463v-1499h119v-37h-439zM524 1610q0 14 12 20q74 76 101.5 114t46.5 83q13 19 38.5 34t47.5 15q20 0 24 -4q16 -8 17 -37q0 -18 -12.5 -37.5 t-32.5 -27.5q-70 -52 -201 -164q-13 -12 -25 -12q-16 0 -16 16z"/>
<glyph unicode="Ì"/>
<glyph unicode="Í" horiz-adv-x="1526" d="M4 4v37h123v1499h-123v37h446v-37h-114v-680h172q96 0 184.5 -26t157.5 -78.5t110 -132.5q40 -81 40 -185q0 -130 -57 -228t-173 -152q-114 -54 -282 -54h-484zM336 41h156q134 0 208 90q74 89 74 307q0 206 -67 293.5t-195 87.5h-176v-778zM680 1610q0 2 4 10t4 10 q80 78 107 112.5t53 84.5q8 18 34 33.5t48 15.5q20 0 24 -4q12 -6 12 -37q0 -18 -10 -37q-10 -18 -30 -28q-34 -24 -50.5 -37t-60 -51t-90.5 -76q-25 -12 -29 -12q-16 0 -16 16zM1024 4v37h114v1499h-114v37h442v-37h-118v-1499h126v-37h-450z"/>
<glyph unicode="Î" horiz-adv-x="1173" d="M24 45v332q0 107 9 107q6 0 25 -56.5t36 -95.5q21 -58 91 -130.5t168.5 -123t203.5 -50.5q144 0 244 48t147.5 123t47.5 157q0 73 -34 137.5t-98 100.5q-74 41 -136 61.5t-177 46.5t-179 44q-152 44 -233 156t-81 249q0 113 57 219t165 173t252 67h21q138 -2 221 -38 q82 -36 110 -60l50 69q10 10 26 25.5t23 15.5q13 0 13 -28v-344q0 -24 -4 -59.5t-9 -35.5l-4 -4q-6 0 -10 17.5t-9 50.5l-10 55q-112 294 -397 299h-17q-109 0 -182.5 -43t-109 -112t-35.5 -144q0 -80 39 -148t100 -90q80 -30 150 -49t184 -47t154 -39q90 -25 156 -87 t100 -147t34 -175q0 -125 -64 -241.5t-193.5 -189.5t-311.5 -73q-82 0 -173.5 33t-151.5 67t-84 52l-58 -99q-27 -37 -49 -37q-17 0 -17 41z"/>
<glyph unicode="Ï" horiz-adv-x="1370" d="M20 4v37h111l348 1073l164 488h25l352 -1074l164 -487h118v-37h-474v37h118l-152 447h-470l-152 -447h123v-37h-275zM328 532h454l-225 668zM610 1626q0 8 12 20q74 77 101.5 113t54.5 84q10 20 34.5 34.5t43.5 14.5q20 0 24 -4q16 -8 17 -36q0 -17 -12 -37.5t-29 -28.5 q-34 -24 -49 -36t-57 -48q-42 -35 -98 -80q-10 -8 -26 -8t-16 12z"/>
<glyph unicode="Ð"/>
<glyph unicode="Ñ"/>
<glyph unicode="Ò" horiz-adv-x="1272" d="M24 1323v41h218v176h-128v37h464v-37h-128v-176h558v-41h-558v-434q14 18 96 45.5t282 27.5q136 0 225 -61t130 -160t41 -217q0 -132 -47 -261t-120 -193q-102 -84 -224.5 -154t-250.5 -121h-4q-2 0 -11.5 19t-9.5 22q189 68 311 205q42 50 72 117.5t45 143.5t15 152 q0 88 -20 169t-60 145t-99 100.5t-137 36.5q-84 0 -146 -22.5t-88 -38.5v-803h128v-37h-464v37h128v1282h-218z"/>
<glyph unicode="Ó"/>
<glyph unicode="Ô" horiz-adv-x="1526" d="M16 786q0 -158 47 -304t139.5 -263t231 -184.5t312.5 -67.5q175 0 312 67.5t228.5 183.5t137.5 262t46 306q0 158 -46 305t-138 263t-228 184t-312 68q-174 0 -312.5 -68t-231 -185t-139.5 -264t-47 -303zM299 484v573q0 150 56.5 265.5t158.5 178.5t232 63t230 -62.5 t156 -178t56 -266.5v-573q0 -138 -52 -246t-152 -169t-238 -61q-218 0 -332.5 133t-114.5 343zM696 1655q0 -17 16 -17t26 8q64 54 97 83.5t54 46t53 34.5q37 18 37 62q-1 34 -13 41q-8 8 -28 8q-21 0 -44.5 -16.5t-33.5 -36.5q-22 -44 -50 -80.5t-106 -116.5q-8 -8 -8 -16z M991 66l49 4z"/>
<glyph unicode="Õ"/>
<glyph unicode="Ö"/>
<glyph unicode="×" horiz-adv-x="1149" d="M4 0v37h110v1397h-110v40h762q152 0 222 58t73 176q0 16 12 16q17 0 17 -16v-225q0 -35 -9 -44t-45 -9h-708v-1393h114v-37h-438z"/>
<glyph unicode="Ø"/>
<glyph unicode="Ù" horiz-adv-x="1247" d="M4 1323v41h217v176h-123v37h459v-37h-123v-176h557v-41h-557v-434q29 16 103.5 38.5t179.5 22.5q164 0 252 -76t88 -222v-611h127v-37h-463v37h127v671q0 98 -40 145.5t-140 47.5q-84 0 -146 -22.5t-88 -38.5v-803h123v-37h-459v37h123v1282h-217z"/>
<glyph unicode="Ú" horiz-adv-x="1272" d="M8 418l29 16q47 -205 164 -319.5t335 -114.5q200 0 311 121t111 363v237h-552q-12 1 -13 21q1 20 13 20h552v217q0 491 -438 491q-114 0 -210 -59t-156 -144t-76 -157q0 -10 -7 -17t-13 -7q-4 0 -10.5 9t-6.5 15v4v4q19 66 59 134t102 127t147 96t187 37h4 q158 0 285.5 -65.5t215 -179t131.5 -254.5t44 -288t-41.5 -284t-124 -245t-206.5 -170.5t-283 -62.5h-25q-126 6 -216.5 37.5t-153 87.5t-101 138t-57.5 192zM512 1610q0 12 8 20q68 70 90.5 100t65.5 97q8 18 33 33.5t45 15.5t24 -4q16 -8 16 -37q0 -17 -11 -37 q-11 -18 -29 -28q-38 -26 -97 -76q-59 -48 -108 -88q-13 -12 -25 -12q-4 0 -8 5t-4 11z"/>
<glyph unicode="Û" horiz-adv-x="1370" d="M20 82q0 4 13 4l12 4q36 -24 74 -24q46 0 89 28q44 28 50 54q8 28 9.5 140t14.5 194t58 144v5q62 87 152.5 118t138.5 33v4q-42 3 -128.5 28.5t-171.5 105.5t-85 227q0 120 60.5 207.5t176.5 134.5t275 47h552v-37h-118v-1458h118v-37h-486v37h159v745h-180 q-95 0 -173 -56q-80 -57 -106 -259q0 -23 -4 -59t-4 -52v-106q0 -76 -15 -123.5t-63 -81.5q-66 -49 -176 -49q-68 0 -138 22t-96 44q-2 2 -4.5 7.5t-3.5 8.5zM488 1147q0 -143 37 -216t88 -92.5t116 -19.5h254v672h-213q-88 0 -150 -28t-97 -104t-35 -212zM725 1614 q0 8 8 16q78 78 104.5 112.5t51.5 84.5q8 18 34 33.5t48 15.5q21 0 25 -4q12 -6 12 -41q0 -43 -37 -61q-37 -24 -56 -39t-61 -51t-88 -74q-12 -12 -24 -12q-6 0 -11.5 6.5t-5.5 13.5z"/>
<glyph unicode="Ü" horiz-adv-x="846" d="M16 4v33h94v934h-94v29h730q16 0 26 -9t10 -25v-245q0 -8 -9 -28.5t-11 -20.5v16q0 36 -18 103.5t-63 123.5t-120 56h-275v-934h95v-33h-365zM291 1114q0 12 12 24q104 104 136.5 145t64.5 101q12 27 42 46.5t56 19.5q20 0 29 -8q21 -14 21 -54q0 -54 -50 -78 q-38 -24 -61 -42t-85 -69t-108 -89q-24 -16 -36 -16q-6 0 -13.5 7t-7.5 13z"/>
<glyph unicode="Ý"/>
<glyph unicode="Þ"/>
<glyph unicode="ß" horiz-adv-x="1173" d="M12 0v33h94v938h-94v29h373v-29h-99v-418h103q141 0 226 -68.5t85 -202.5q0 -146 -87 -212t-236 -66zM286 33h95q180 -1 180 249q0 135 -49.5 186.5t-118.5 51.5h-107v-487zM438 1110q0 4 12 28q102 104 136 148q34 42 66 102q11 28 36 45q26 17 50 17t40 -8 q20 -14 20 -54q0 -54 -48 -78q-80 -50 -120 -79t-138 -121q-26 -16 -38 -16q-16 0 -16 16zM746 4v33h94v934h-94v29h368v-29h-94v-934h98v-33h-372z"/>
<glyph unicode="à"/>
<glyph unicode="á" horiz-adv-x="1951" d="M4 4v37h123v1499h-123v37h463v-37h-127v-680h622v680h-126v37h462v-37h-126v-680h229q140 0 251.5 -47.5t175.5 -144t64 -234.5t-63 -235t-179 -146t-270 -49h-540v37h122v783h-622v-783h127v-37h-463zM1172 37h212q278 0 279 397q0 190 -69.5 290t-188.5 100h-233v-787z "/>
<glyph unicode="â"/>
<glyph unicode="ã"/>
<glyph unicode="ä"/>
<glyph unicode="å" horiz-adv-x="575" d="M4 -389q0 43 25.5 68.5t56.5 25.5q18 0 39 -12.5t27 -28.5q16 -27 16 -57q0 -31 -17 -52.5t-28 -29.5q6 -21 41 -21q44 0 85.5 40t41.5 108v1319h-103v29h283v-1106q0 -139 -41.5 -239.5t-163.5 -158.5q-48 -20 -98 -20q-67 0 -115.5 37.5t-48.5 97.5zM242 1368 q0 50 37 88.5t98 38.5q60 0 95.5 -37.5t35.5 -85.5v-4q0 -52 -35 -89.5t-96 -37.5t-98 38.5t-37 88.5z"/>
<glyph unicode="æ" horiz-adv-x="1321" d="M20 766q0 156 46 304t134.5 267t218 188t289.5 69h9q136 0 240.5 -64t169.5 -160t89 -194v-8q0 -6 -6 -11.5t-10 -5.5q-16 1 -16 21q-12 59 -50 124.5t-97 125.5t-137 97t-167 37q-447 0 -447 -520v-233q402 0 562 4q24 -1 24 -21t-24 -20h-562v-250q0 -116 30 -211.5 t86 -163t137 -102.5t178 -35q192 0 322 118q129 118 181 341q0 12 13 12q4 0 12.5 -7.5t8.5 -17.5v-4q-53 -234 -185 -354t-352 -129h-29q-161 0 -287.5 65.5t-210.5 179.5t-127 259t-43 299z"/>
<glyph unicode="ç"/>
<glyph unicode="è" horiz-adv-x="522" d="M8 4v37h123v1499h-123v37h459v-37h-123v-1499h123v-37h-459z"/>
<glyph unicode="é" horiz-adv-x="1075" d="M16 -254q0 45 33 79.5t86 34.5l5 5q114 -1 114 -103q0 -30 -6 -56t-10 -38q138 46 212 155t95 173l-410 975h-98v29h381v-29h-94l315 -750l258 750h-103v29h234v-29h-94l-295 -873q-59 -182 -183 -328q-122 -147 -304 -147h-17q-52 0 -85.5 38.5t-33.5 84.5zM516 1110 q0 4 12 28q107 110 138.5 150t58.5 96q12 28 42.5 47t56.5 19q16 0 32 -8q20 -14 20 -50q0 -22 -14 -46q-12 -24 -34 -36q-40 -25 -66 -44t-79 -62.5t-113 -93.5q-26 -16 -38 -16q-6 0 -11 5t-5 11z"/>
<glyph unicode="ê" horiz-adv-x="1149" d="M16 4v37h111v1499h-111v37h926q30 0 54 -12t24 -37v-291v-69q0 -14 -6 -24t-10 -10q-12 0 -13 34q-4 66 -34.5 153t-88.5 153t-143 66h-385v-688h234q31 0 51.5 19.5t32.5 47.5t18 58.5t12 58.5q10 36 16 98q0 7 5 14t12 7q17 -1 17 -29v-552q0 -12 -6 -18.5t-11 -6.5 q-2 0 -9.5 6.5t-7.5 9.5q-4 17 -12 73t-18.5 91.5t-34.5 60.5q-23 25 -65 25h-234v-774h422q77 0 126.5 40t75 97.5t37 122.5t15.5 84q10 103 32 103q12 0 17 -4q21 -10 21 -54v-356q0 -70 -58 -70h-1012zM475 1614q0 2 1.5 7.5t2.5 8.5q80 78 108.5 114t51.5 83 q10 19 34.5 34t47.5 15q21 0 25 -4q12 -6 12 -37q0 -18 -10.5 -37.5t-30.5 -27.5q-35 -23 -53 -37.5t-60 -51.5t-88 -75q-12 -12 -24 -12q-6 0 -11.5 6.5t-5.5 13.5z"/>
<glyph unicode="ë" horiz-adv-x="1198" d="M24 4v37h116v1499h-116v37h1062q48 0 48 -45v-422q0 -8 -6 -16t-10 -8t-8 7.5t-4 16.5q-8 139 -67.5 284.5t-231.5 145.5h-463v-1499h119v-37h-439zM524 1610q0 14 12 20q74 76 101.5 114t46.5 83q13 19 38.5 34t47.5 15q20 0 24 -4q16 -8 17 -37q0 -18 -12.5 -37.5 t-32.5 -27.5q-70 -52 -201 -164q-13 -12 -25 -12q-16 0 -16 16z"/>
<glyph unicode="ì"/>
<glyph unicode="í" horiz-adv-x="1526" d="M4 4v37h123v1499h-123v37h446v-37h-114v-680h172q96 0 184.5 -26t157.5 -78.5t110 -132.5q40 -81 40 -185q0 -130 -57 -228t-173 -152q-114 -54 -282 -54h-484zM336 41h156q134 0 208 90q74 89 74 307q0 206 -67 293.5t-195 87.5h-176v-778zM680 1610q0 2 4 10t4 10 q80 78 107 112.5t53 84.5q8 18 34 33.5t48 15.5q20 0 24 -4q12 -6 12 -37q0 -18 -10 -37q-10 -18 -30 -28q-34 -24 -50.5 -37t-60 -51t-90.5 -76q-25 -12 -29 -12q-16 0 -16 16zM1024 4v37h114v1499h-114v37h442v-37h-118v-1499h126v-37h-450z"/>
<glyph unicode="î" horiz-adv-x="469" d="M24 4v37h107v921h-107v38h292v-959h102v-37h-394zM86 1364q0 50 37 90.5t98 40.5q66 0 100.5 -37.5t34.5 -89.5q0 -54 -35.5 -90.5t-99.5 -36.5q-61 0 -98 37t-37 86z"/>
<glyph unicode="ï" horiz-adv-x="1370" d="M20 4v37h111l348 1073l164 488h25l352 -1074l164 -487h118v-37h-474v37h118l-152 447h-470l-152 -447h123v-37h-275zM328 532h454l-225 668zM610 1626q0 8 12 20q74 77 101.5 113t54.5 84q10 20 34.5 34.5t43.5 14.5q20 0 24 -4q16 -8 17 -36q0 -17 -12 -37.5t-29 -28.5 q-34 -24 -49 -36t-57 -48q-42 -35 -98 -80q-10 -8 -26 -8t-16 12z"/>
<glyph unicode="ð"/>
<glyph unicode="ñ"/>
<glyph unicode="ò" horiz-adv-x="1272" d="M24 1323v41h218v176h-128v37h464v-37h-128v-176h558v-41h-558v-434q14 18 96 45.5t282 27.5q136 0 225 -61t130 -160t41 -217q0 -132 -47 -261t-120 -193q-102 -84 -224.5 -154t-250.5 -121h-4q-2 0 -11.5 19t-9.5 22q189 68 311 205q42 50 72 117.5t45 143.5t15 152 q0 88 -20 169t-60 145t-99 100.5t-137 36.5q-84 0 -146 -22.5t-88 -38.5v-803h128v-37h-464v37h128v1282h-218z"/>
<glyph unicode="ó"/>
<glyph unicode="ô" horiz-adv-x="1526" d="M16 786q0 -158 47 -304t139.5 -263t231 -184.5t312.5 -67.5q175 0 312 67.5t228.5 183.5t137.5 262t46 306q0 158 -46 305t-138 263t-228 184t-312 68q-174 0 -312.5 -68t-231 -185t-139.5 -264t-47 -303zM299 484v573q0 150 56.5 265.5t158.5 178.5t232 63t230 -62.5 t156 -178t56 -266.5v-573q0 -138 -52 -246t-152 -169t-238 -61q-218 0 -332.5 133t-114.5 343zM696 1655q0 -17 16 -17t26 8q64 54 97 83.5t54 46t53 34.5q37 18 37 62q-1 34 -13 41q-8 8 -28 8q-21 0 -44.5 -16.5t-33.5 -36.5q-22 -44 -50 -80.5t-106 -116.5q-8 -8 -8 -16z M991 66l49 4z"/>
<glyph unicode="õ"/>
<glyph unicode="ö"/>
<glyph unicode="÷" horiz-adv-x="870" d="M20 4v33h94v929h-94v34h558q101 0 155.5 69t56.5 181q0 12 8 12q12 0 13 -12v-242q0 -16 -9 -29t-24 -13h-483v-929h94v-33h-369z"/>
<glyph unicode="ø"/>
<glyph unicode="ù" horiz-adv-x="1247" d="M4 1323v41h217v176h-123v37h459v-37h-123v-176h557v-41h-557v-434q29 16 103.5 38.5t179.5 22.5q164 0 252 -76t88 -222v-611h127v-37h-463v37h127v671q0 98 -40 145.5t-140 47.5q-84 0 -146 -22.5t-88 -38.5v-803h123v-37h-459v37h123v1282h-217z"/>
<glyph unicode="ú" horiz-adv-x="1272" d="M8 418l29 16q47 -205 164 -319.5t335 -114.5q200 0 311 121t111 363v237h-552q-12 1 -13 21q1 20 13 20h552v217q0 491 -438 491q-114 0 -210 -59t-156 -144t-76 -157q0 -10 -7 -17t-13 -7q-4 0 -10.5 9t-6.5 15v4v4q19 66 59 134t102 127t147 96t187 37h4 q158 0 285.5 -65.5t215 -179t131.5 -254.5t44 -288t-41.5 -284t-124 -245t-206.5 -170.5t-283 -62.5h-25q-126 6 -216.5 37.5t-153 87.5t-101 138t-57.5 192zM512 1610q0 12 8 20q68 70 90.5 100t65.5 97q8 18 33 33.5t45 15.5t24 -4q16 -8 16 -37q0 -17 -11 -37 q-11 -18 -29 -28q-38 -26 -97 -76q-59 -48 -108 -88q-13 -12 -25 -12q-4 0 -8 5t-4 11z"/>
<glyph unicode="û" horiz-adv-x="1370" d="M20 82q0 4 13 4l12 4q36 -24 74 -24q46 0 89 28q44 28 50 54q8 28 9.5 140t14.5 194t58 144v5q62 87 152.5 118t138.5 33v4q-42 3 -128.5 28.5t-171.5 105.5t-85 227q0 120 60.5 207.5t176.5 134.5t275 47h552v-37h-118v-1458h118v-37h-486v37h159v745h-180 q-95 0 -173 -56q-80 -57 -106 -259q0 -23 -4 -59t-4 -52v-106q0 -76 -15 -123.5t-63 -81.5q-66 -49 -176 -49q-68 0 -138 22t-96 44q-2 2 -4.5 7.5t-3.5 8.5zM488 1147q0 -143 37 -216t88 -92.5t116 -19.5h254v672h-213q-88 0 -150 -28t-97 -104t-35 -212zM725 1614 q0 8 8 16q78 78 104.5 112.5t51.5 84.5q8 18 34 33.5t48 15.5q21 0 25 -4q12 -6 12 -41q0 -43 -37 -61q-37 -24 -56 -39t-61 -51t-88 -74q-12 -12 -24 -12q-6 0 -11.5 6.5t-5.5 13.5z"/>
<glyph unicode="ü" horiz-adv-x="846" d="M16 4v33h94v934h-94v29h730q16 0 26 -9t10 -25v-245q0 -8 -9 -28.5t-11 -20.5v16q0 36 -18 103.5t-63 123.5t-120 56h-275v-934h95v-33h-365zM291 1114q0 12 12 24q104 104 136.5 145t64.5 101q12 27 42 46.5t56 19.5q20 0 29 -8q21 -14 21 -54q0 -54 -50 -78 q-38 -24 -61 -42t-85 -69t-108 -89q-24 -16 -36 -16q-6 0 -13.5 7t-7.5 13z"/>
<glyph unicode="ý"/>
<glyph unicode="þ"/>
<glyph unicode="ÿ"/>
<glyph unicode="Œ"/>
<glyph unicode="œ"/>
<glyph unicode="Ÿ"/>
<glyph unicode="ˆ" horiz-adv-x="346" d="M8 1352q0 102 29 160q39 58 111 57q31 0 60 -13q30 -12 42 -36q32 -66 32 -180q-14 -74 -37 -204t-32 -214q-6 -42 -16.5 -155t-21.5 -240.5t-11 -133.5h-29q0 8 -9.5 130t-21.5 237q-12 116 -22 162q-20 80 -45 241t-25 177q-4 0 -4 12zM37 119q0 46 33.5 82.5 t89.5 36.5q58 0 90 -36q32 -38 32 -88q0 -47 -30 -80.5t-88 -33.5t-92.5 36.5t-34.5 82.5z"/>
<glyph unicode="˜" horiz-adv-x="370" d="M16 1168q1 2 3.5 5t4.5 3q108 49 153 115.5t53 100.5q-62 -20 -74 -20q-47 0 -79 34.5t-32 76.5q0 33 25 65t65 41q12 5 45 5q53 0 88 -39t35 -89q0 -37 -8 -53q-8 -22 -42.5 -70.5t-91.5 -99.5t-128 -79l-9 -5q-8 1 -8 9z"/>
<glyph unicode=" " horiz-adv-x="960"/>
<glyph unicode=" " horiz-adv-x="1921"/>
<glyph unicode=" " horiz-adv-x="960"/>
<glyph unicode=" " horiz-adv-x="1921"/>
<glyph unicode=" " horiz-adv-x="640"/>
<glyph unicode=" " horiz-adv-x="480"/>
<glyph unicode=" " horiz-adv-x="320"/>
<glyph unicode=" " horiz-adv-x="320"/>
<glyph unicode=" " horiz-adv-x="240"/>
<glyph unicode=" " horiz-adv-x="384"/>
<glyph unicode=" " horiz-adv-x="106"/>
<glyph unicode="‐" horiz-adv-x="420" d="M16 -213q2 1 6 2.5t6 1.5q130 56 185 133t65 117q-46 -21 -82 -21q-56 0 -93 38q-37 40 -37 90q0 39 28 77.5t78 52.5q6 0 20 2t21 2q65 0 110 -46.5t45 -104.5q0 -27 -16 -69q-28 -59 -106 -147.5t-201 -135.5h-12q-6 0 -10.5 3t-6.5 5z"/>
<glyph unicode="‑" horiz-adv-x="420" d="M16 -213q2 1 6 2.5t6 1.5q130 56 185 133t65 117q-46 -21 -82 -21q-56 0 -93 38q-37 40 -37 90q0 39 28 77.5t78 52.5q6 0 20 2t21 2q65 0 110 -46.5t45 -104.5q0 -27 -16 -69q-28 -59 -106 -147.5t-201 -135.5h-12q-6 0 -10.5 3t-6.5 5z"/>
<glyph unicode="‒" horiz-adv-x="420" d="M16 -213q2 1 6 2.5t6 1.5q130 56 185 133t65 117q-46 -21 -82 -21q-56 0 -93 38q-37 40 -37 90q0 39 28 77.5t78 52.5q6 0 20 2t21 2q65 0 110 -46.5t45 -104.5q0 -27 -16 -69q-28 -59 -106 -147.5t-201 -135.5h-12q-6 0 -10.5 3t-6.5 5z"/>
<glyph unicode="–"/>
<glyph unicode="—"/>
<glyph unicode="‘" horiz-adv-x="448" d="M16 1114q0 12 12 24q104 104 137 145t65 101q12 28 42 47t56 19q20 0 28 -8q20 -14 21 -50q0 -22 -13.5 -45t-35.5 -37q-39 -25 -64 -44t-84.5 -68.5t-105.5 -87.5q-24 -16 -37 -16q-6 0 -13.5 7t-7.5 13z"/>
<glyph unicode="’" horiz-adv-x="1272" d="M24 1540v37h447v-37h-119l377 -884l328 884h-115v37h274v-37h-114l-398 -1073l-24 -61q-30 -77 -60 -153t-64 -134t-80 -94.5t-108 -36.5q-80 0 -126 40t-46 91q0 46 34 82.5t90 36.5q65 0 97.5 -36.5t32.5 -82.5q0 -34 -15 -60t-37 -26h-5q90 8 153.5 143.5t88.5 225.5 l-467 1072l-24 66h-120zM656 1610q0 12 8 20q75 78 104.5 116t50.5 81q10 18 34.5 33.5t43.5 15.5q21 0 25 -4q16 -8 16 -37q0 -17 -12 -37q-11 -18 -29 -28q-34 -24 -89.5 -69t-119.5 -95q-12 -12 -20 -12q-12 0 -12 16z"/>
<glyph unicode="‚" horiz-adv-x="0"/>
<glyph unicode="“" horiz-adv-x="895" d="M12 1438l12 82h316l8 -82h-12q0 28 -20 44.5t-54 16.5h-49v-340h53v-21h-172v21h58v340h-58q-57 1 -57 -61h-25zM418 1138v17h49v348h-49v17h94l114 -287l95 287h107v-17h-42v-348h42v-17h-148v17h45v319l-111 -336h-16l-110 316v-299h40v-17h-110z"/>
<glyph unicode="”" horiz-adv-x="1296" d="M12 446l41 17q29 -142 88 -243.5t161.5 -158.5t254.5 -57q132 0 227.5 57t147 171.5t51.5 283.5v250h-565q-8 0 -8 20t8 21q102 -2 283 -3t282 -1v233q0 172 -47.5 287.5t-145.5 173t-250 59.5q-118 0 -215 -61.5t-159.5 -151t-83.5 -171.5q0 -9 -6 -17t-10 -8q-3 3 -8 9 t-5 12v8q20 93 84.5 189.5t171.5 162.5t244 66h4q162 0 291.5 -69t217.5 -188t133.5 -266t45.5 -305v-12q0 -153 -42.5 -295.5t-127.5 -254.5t-210 -176.5t-283 -64.5h-25q-168 8 -278.5 63t-174 158.5t-92.5 261.5z"/>
<glyph unicode="„"/>
<glyph unicode="•" horiz-adv-x="772" d="M16 291q0 64 41 116t103 52q9 0 23.5 -2.5t21.5 -2.5q42 -14 64 -50q22 -34 22 -76q0 -49 -37.5 -92.5t-89.5 -43.5q-20 0 -78 25q5 -34 57.5 -106.5t200.5 -143.5q2 0 5 -1.5t3 -2.5q-2 -1 -6 -2.5t-6 -1.5l-4 -4q-133 48 -215.5 134.5t-96.5 148.5q-8 34 -8 53z M377 286q0 67 43 120q42 53 108 53q8 0 24 -3q16 -2 22 -2q44 -14 67 -50t23 -76q0 -50 -38 -93t-94 -43q-24 0 -82 25q4 -34 56 -106.5t202 -143.5q2 0 5 -1.5t4 -2.5l-6 -3q-5 -1 -7 -1l-4 -4q-88 32 -154 84.5t-106 106.5t-55 92q0 8 -4 24t-4 24z"/>
<glyph unicode="…"/>
<glyph unicode=" " horiz-adv-x="384"/>
<glyph unicode="‹" horiz-adv-x="1100" d="M4 4v37h136v1499h-136v37h922v-311q0 21 -27 96.5t-59 111.5q-58 66 -168 66h-324v-762q18 41 78 102.5t168 61.5q144 0 247 -69t155 -181t52 -238q0 -92 -29 -179t-86.5 -155t-143 -108t-195.5 -40q-117 0 -174.5 56.5t-71.5 94.5v-119h-344zM344 205q0 -16 30.5 -66 t84 -90.5t123.5 -40.5q76 0 122.5 20t69.5 70q24 52 24 144v446q0 217 -200 217h-12q-70 0 -125 -46.5t-86 -106.5t-31 -92v-455z"/>
<glyph unicode="›" horiz-adv-x="420" d="M16 -213q2 1 6 2.5t6 1.5q130 56 185 133t65 117q-46 -21 -82 -21q-56 0 -93 38q-37 40 -37 90q0 39 28 77.5t78 52.5q6 0 20 2t21 2q65 0 110 -46.5t45 -104.5q0 -27 -16 -69q-28 -59 -106 -147.5t-201 -135.5h-12q-6 0 -10.5 3t-6.5 5z"/>
<glyph unicode=" " horiz-adv-x="480"/>
<glyph unicode="™"/>
<glyph unicode="" horiz-adv-x="1000" d="M0 1000h1000v-1000h-1000v1000z"/>
<glyph unicode="ﬁ" horiz-adv-x="2474" d="M989 4v33h94v934h-94v33h373v-33h-98v-934h352v934h-103v29h374v-29h-95v-934h349v934h-95v29h365v-29h-94v-934h94v-33h-1422zM0 234q0 114 53 180q76 92 189.5 124t220.5 32h57v208q0 109 -32 159q-34 50 -124 50q-84 0 -134 -23.5t-50 -45.5q0 -4 6 -10.5t10 -6.5 q58 -23 58 -82q0 -53 -41 -81q-49 -20 -73 -21q-41 0 -68.5 26.5t-30.5 67.5l-4 4q0 42 35.5 90.5t108.5 81.5t179 33q131 0 204.5 -25.5t102.5 -76t29 -132.5v-581q0 -12 -2 -32.5t-2 -28.5q0 -98 78 -99q58 0 123 90q4 8 9.5 13.5l7.5 7.5v-8q0 -20 -29 -62.5t-87 -76 t-142 -33.5q-74 0 -97 56.5t-23 94.5q-28 -38 -104 -95q-76 -56 -194 -56q-114 0 -174 77.5t-60 180.5zM172 270q0 -8 2 -24.5t2 -24.5q6 -92 48 -138t96 -46q2 0 10 2t10 2q28 2 71 28t76 60.5t33 58.5v361q-118 -1 -180 -21q-168 -56 -168 -258z"/>
<glyph unicode="ﬂ" horiz-adv-x="1946" d="M997 37h120q72 139 116 237t75 202t47 225t16 270h-95v29h573v-29h-94v-934h123v-258q-4 26 -15.5 74.5t-33.5 84.5q-12 20 -27 39t-22 27h-663q-4 0 -66 -53q-19 -34 -33.5 -82.5t-20.5 -73.5v242zM1161 37h414v934h-164q-6 -202 -34 -352t-77 -276t-139 -306zM0 234 q0 114 53 180q76 92 189.5 124t220.5 32h57v208q0 109 -32 159q-34 50 -124 50q-84 0 -134 -23.5t-50 -45.5q0 -4 6 -10.5t10 -6.5q58 -23 58 -82q0 -53 -41 -81q-49 -20 -73 -21q-41 0 -68.5 26.5t-30.5 67.5l-4 4q0 42 35.5 90.5t108.5 81.5t179 33q131 0 204.5 -25.5 t102.5 -76t29 -132.5v-581q0 -12 -2 -32.5t-2 -28.5q0 -98 78 -99q58 0 123 90q4 8 9.5 13.5l7.5 7.5v-8q0 -20 -29 -62.5t-87 -76t-142 -33.5q-74 0 -97 56.5t-23 94.5q-28 -38 -104 -95q-76 -56 -194 -56q-114 0 -174 77.5t-60 180.5zM172 270q0 -8 2 -24.5t2 -24.5 q6 -92 48 -138t96 -46q2 0 10 2t10 2q28 2 71 28t76 60.5t33 58.5v361q-118 -1 -180 -21q-168 -56 -168 -258z"/>
<glyph unicode="ﬃ" horiz-adv-x="3447" d="M1962 4v33h94v934h-94v33h373v-33h-98v-934h352v934h-103v29h374v-29h-95v-934h349v934h-95v29h365v-29h-94v-934h94v-33h-1422zM973 234q0 114 53 180q76 92 189.5 124t220.5 32h57v208q0 109 -32 159q-34 50 -124 50q-84 0 -134 -23.5t-50 -45.5q0 -4 6 -10.5t10 -6.5 q58 -23 58 -82q0 -53 -41 -81q-49 -20 -73 -21q-41 0 -68.5 26.5t-30.5 67.5l-4 4q0 42 35.5 90.5t108.5 81.5t179 33q131 0 204.5 -25.5t102.5 -76t29 -132.5v-581q0 -12 -2 -32.5t-2 -28.5q0 -98 78 -99q58 0 123 90q4 8 9.5 13.5l7.5 7.5v-8q0 -20 -29 -62.5t-87 -76 t-142 -33.5q-74 0 -97 56.5t-23 94.5q-28 -38 -104 -95q-76 -56 -194 -56q-114 0 -174 77.5t-60 180.5zM1145 270q0 -8 2 -24.5t2 -24.5q6 -92 48 -138t96 -46q2 0 10 2t10 2q28 2 71 28t76 60.5t33 58.5v361q-118 -1 -180 -21q-168 -56 -168 -258zM0 234q0 114 53 180 q76 92 189.5 124t220.5 32h57v208q0 109 -32 159q-34 50 -124 50q-84 0 -134 -23.5t-50 -45.5q0 -4 6 -10.5t10 -6.5q58 -23 58 -82q0 -53 -41 -81q-49 -20 -73 -21q-41 0 -68.5 26.5t-30.5 67.5l-4 4q0 42 35.5 90.5t108.5 81.5t179 33q131 0 204.5 -25.5t102.5 -76 t29 -132.5v-581q0 -12 -2 -32.5t-2 -28.5q0 -98 78 -99q58 0 123 90q4 8 9.5 13.5l7.5 7.5v-8q0 -20 -29 -62.5t-87 -76t-142 -33.5q-74 0 -97 56.5t-23 94.5q-28 -38 -104 -95q-76 -56 -194 -56q-114 0 -174 77.5t-60 180.5zM172 270q0 -8 2 -24.5t2 -24.5q6 -92 48 -138 t96 -46q2 0 10 2t10 2q28 2 71 28t76 60.5t33 58.5v361q-118 -1 -180 -21q-168 -56 -168 -258z"/>
<glyph unicode="ﬄ" horiz-adv-x="2919" d="M1970 37h120q72 139 116 237t75 202t47 225t16 270h-95v29h573v-29h-94v-934h123v-258q-4 26 -15.5 74.5t-33.5 84.5q-12 20 -27 39t-22 27h-663q-4 0 -66 -53q-19 -34 -33.5 -82.5t-20.5 -73.5v242zM2134 37h414v934h-164q-6 -202 -34 -352t-77 -276t-139 -306zM973 234 q0 114 53 180q76 92 189.5 124t220.5 32h57v208q0 109 -32 159q-34 50 -124 50q-84 0 -134 -23.5t-50 -45.5q0 -4 6 -10.5t10 -6.5q58 -23 58 -82q0 -53 -41 -81q-49 -20 -73 -21q-41 0 -68.5 26.5t-30.5 67.5l-4 4q0 42 35.5 90.5t108.5 81.5t179 33q131 0 204.5 -25.5 t102.5 -76t29 -132.5v-581q0 -12 -2 -32.5t-2 -28.5q0 -98 78 -99q58 0 123 90q4 8 9.5 13.5l7.5 7.5v-8q0 -20 -29 -62.5t-87 -76t-142 -33.5q-74 0 -97 56.5t-23 94.5q-28 -38 -104 -95q-76 -56 -194 -56q-114 0 -174 77.5t-60 180.5zM1145 270q0 -8 2 -24.5t2 -24.5 q6 -92 48 -138t96 -46q2 0 10 2t10 2q28 2 71 28t76 60.5t33 58.5v361q-118 -1 -180 -21q-168 -56 -168 -258zM0 234q0 114 53 180q76 92 189.5 124t220.5 32h57v208q0 109 -32 159q-34 50 -124 50q-84 0 -134 -23.5t-50 -45.5q0 -4 6 -10.5t10 -6.5q58 -23 58 -82 q0 -53 -41 -81q-49 -20 -73 -21q-41 0 -68.5 26.5t-30.5 67.5l-4 4q0 42 35.5 90.5t108.5 81.5t179 33q131 0 204.5 -25.5t102.5 -76t29 -132.5v-581q0 -12 -2 -32.5t-2 -28.5q0 -98 78 -99q58 0 123 90q4 8 9.5 13.5l7.5 7.5v-8q0 -20 -29 -62.5t-87 -76t-142 -33.5 q-74 0 -97 56.5t-23 94.5q-28 -38 -104 -95q-76 -56 -194 -56q-114 0 -174 77.5t-60 180.5zM172 270q0 -8 2 -24.5t2 -24.5q6 -92 48 -138t96 -46q2 0 10 2t10 2q28 2 71 28t76 60.5t33 58.5v361q-118 -1 -180 -21q-168 -56 -168 -258z"/>
</font>
</defs>
</svg>
